<svg xmlns="http://www.w3.org/2000/svg" width="119" height="43" viewBox="0 0 119 43">
  <g fill="none" fill-rule="evenodd" transform="translate(.502 .498)">
    <rect width="118.483" height="41.818" fill="#032526" rx="4.182"/>
    <path fill="#FFF" fill-rule="nonzero" d="M44.3835624 28.9640345L44.3835624 32.9388851 43.0427309 32.9388851 43.0427309 23.0289837 46.8338127 23.0289837C47.8910556 23.0289837 48.712335 23.301231 49.2976755 23.8457338 49.883016 24.3902366 50.1756819 25.1071546 50.1756819 25.9965091 50.1756819 26.8994763 49.883016 27.6197973 49.2976755 28.1574938 48.712335 28.6951903 47.8910556 28.9640345 46.8338127 28.9640345L44.3835624 28.9640345zM44.3835624 27.9158719L46.8338127 27.9158719C47.5053662 27.9158719 48.006755 27.735508 48.3379942 27.3747749 48.6692334 27.0140418 48.8348505 26.559162 48.8348505 26.0101216 48.8348505 25.4610813 48.668099 25.0027983 48.334591 24.6352589 48.0010831 24.2677196 47.5008286 24.0839526 46.8338127 24.0839526L44.3835624 24.0839526 44.3835624 27.9158719zM53.2371336 32.9388851L51.8963022 32.9388851 51.8963022 22.3211336 53.2371336 22.3211336 53.2371336 32.9388851zM59.8922858 32.9388851C59.8469105 32.7165464 59.8117452 32.5203015 59.7867889 32.3501444 59.7618325 32.1799873 59.7470858 32.0086983 59.7425482 31.8362724 59.4929845 32.1901993 59.167422 32.4862682 58.7658512 32.7244882 58.3642804 32.9627082 57.9320878 33.0818164 57.4692604 33.0818164 56.702419 33.0818164 56.1182216 32.8855714 55.7166508 32.4930757 55.31508 32.1005799 55.1142976 31.5594883 55.1142976 30.8697848 55.1142976 30.1664687 55.3990229 29.6163022 55.9684821 29.219269 56.5379413 28.8222357 57.310443 28.623722 58.2860105 28.623722L59.7425482 28.623722 59.7425482 27.8954531C59.7425482 27.4643884 59.610962 27.1229449 59.3477857 26.8711124 59.0846093 26.6192798 58.712538 26.4933654 58.2315605 26.4933654 57.8004958 26.4933654 57.4499774 26.6033987 57.1799948 26.8234686 56.9100121 27.0435385 56.7750228 27.3078453 56.7750228 27.6163969L55.4954477 27.6163969 55.4818352 27.5755593C55.45461 27.0401316 55.7075731 26.5500864 56.2407321 26.1054091 56.7738911 25.6607319 57.46245 25.4383966 58.3064293 25.4383966 59.1413336 25.4383966 59.812877 25.6505226 60.3210796 26.074781 60.8292822 26.4990394 61.0833797 27.1104615 61.0833797 27.9090656L61.0833797 31.4551224C61.0833797 31.7182987 61.096992 31.9723962 61.1242172 32.2174225 61.1514423 32.4624487 61.2013543 32.7029339 61.2739547 32.9388851L59.8922858 32.9388851zM57.6666417 31.958785C58.1521567 31.958785 58.5900211 31.8340049 58.9802481 31.5844412 59.3704751 31.3348774 59.6245726 31.0490177 59.7425482 30.7268535L59.7425482 29.5289534 58.2383668 29.5289534C57.6984015 29.5289534 57.2662089 29.665077 56.941776 29.9373284 56.6173431 30.2095798 56.455129 30.5294704 56.455129 30.8970098 56.455129 31.2237115 56.5572218 31.4823464 56.7614103 31.6729224 56.9655989 31.8634984 57.2673397 31.958785 57.6666417 31.958785zM65.247444 30.2095785L65.4856628 31.1352286 65.5265003 31.1352286 67.336963 25.5745216 68.827532 25.5745216 65.7306878 34.0687227C65.5446494 34.5633128 65.2780739 34.994371 64.9309533 35.3619104 64.5838328 35.7294498 64.1153405 35.9132167 63.5254625 35.9132167 63.416562 35.9132167 63.2781696 35.9007387 63.1102812 35.8757824 62.9423928 35.850826 62.8130754 35.8270043 62.7223249 35.8043167L62.8584499 34.7493478C62.8312248 34.7448103 62.9117646 34.7493478 63.1000718 34.7629603 63.288379 34.7765729 63.4074872 34.7833791 63.4574 34.7833791 63.743264 34.7833791 63.9769429 34.6563303 64.1584439 34.402229 64.3399448 34.1481277 64.4919495 33.8668055 64.6144627 33.5582539L64.9343565 32.7891476 62.1982436 25.5745216 63.6956188 25.5745216 65.247444 30.2095785zM79.2519859 30.440991C79.2519859 29.9872387 79.0818314 29.6072268 78.7415171 29.300944 78.4012029 28.9946611 77.7977213 28.7371606 76.9310544 28.5284345 75.8828865 28.2788707 75.0650102 27.9113368 74.4774009 27.4258218 73.8897916 26.9403068 73.5959914 26.3300191 73.5959914 25.5949403 73.5959914 24.8235614 73.9124789 24.1792427 74.5454634 23.6619651 75.1784479 23.1446874 75.998593 22.8860525 77.0059231 22.8860525 78.0903912 22.8860525 78.9536421 23.1832558 79.5957016 23.7776713 80.2377612 24.3720869 80.5474425 25.0617801 80.5247549 25.8467716L80.5111424 25.8876091 79.2315672 25.8876091C79.2315672 25.3068061 79.0398597 24.8371795 78.656439 24.4787152 78.2730183 24.1202508 77.7228518 23.9410213 77.0059231 23.9410213 76.3389072 23.9410213 75.8273091 24.0918917 75.4711135 24.393637 75.114918 24.6953823 74.9368228 25.0890066 74.9368228 25.5745216 74.9368228 26.0055863 75.1296647 26.3651796 75.5153542 26.6533123 75.9010437 26.9414451 76.5272125 27.1944082 77.3938794 27.4122093 78.4375098 27.6708482 79.2315645 28.0519944 79.7760673 28.5556595 80.3205701 29.0593246 80.5928174 29.6832247 80.5928174 30.4273785 80.5928174 31.2259826 80.2661206 31.8680325 79.6127172 32.3535475 78.9593139 32.8390625 78.1062723 33.0818164 77.0535669 33.0818164 76.0643868 33.0818164 75.1897923 32.8141065 74.4297572 32.2786787 73.669722 31.743251 73.3010538 31.0263331 73.3237414 30.1279035L73.3373539 30.0870659 74.6169291 30.0870659C74.6169291 30.7223192 74.850608 31.2055582 75.3179729 31.5367974 75.7853378 31.8680366 76.3638633 32.0336537 77.0535669 32.0336537 77.7296579 32.0336537 78.2650776 31.8907239 78.6598421 31.6048599 79.0546066 31.3189959 79.2519859 30.9310435 79.2519859 30.440991zM84.1307066 23.7980901L84.1307066 25.5745216 85.5259881 25.5745216 85.5259881 26.5682342 84.1307066 26.5682342 84.1307066 31.0399411C84.1307066 31.3847928 84.2021715 31.6275467 84.3451035 31.7682099 84.4880355 31.9088731 84.6774743 31.9792037 84.9134255 31.9792037 84.9905634 31.9792037 85.0756407 31.9701288 85.1686599 31.9519787 85.2616791 31.9338286 85.3444877 31.9111413 85.417088 31.8839162L85.5940506 32.8027601C85.4942251 32.8844355 85.3478921 32.951363 85.1550474 33.0035445 84.9622026 33.055726 84.7682264 33.0818164 84.5731129 33.0818164 84.0286101 33.0818164 83.5952832 32.9173336 83.273119 32.5883632 82.9509548 32.2593927 82.7898752 31.7432572 82.7898752 31.0399411L82.7898752 26.5682342 81.6192 26.5682342 81.6192 25.5745216 82.7898752 25.5745216 82.7898752 23.7980901 84.1307066 23.7980901zM86.9335208 29.1886408C86.9335208 28.0996352 87.2284554 27.2023535 87.8183334 26.4967686 88.4082114 25.7911837 89.2090723 25.4383966 90.22094 25.4383966 91.2418827 25.4383966 92.0484154 25.7900493 92.6405622 26.4933654 93.232709 27.1966816 93.5287779 28.0950977 93.5287779 29.1886408L93.5287779 29.3383783C93.5287779 30.436459 93.2338433 31.3348751 92.6439653 32.0336537 92.0540873 32.7324323 91.2509577 33.0818164 90.2345525 33.0818164 89.2181472 33.0818164 88.4138833 32.7312979 87.8217365 32.0302506 87.2295897 31.3292032 86.9335208 30.4319215 86.9335208 29.3383783L86.9335208 29.1886408zM88.2743522 29.3383783C88.2743522 30.1188324 88.4388349 30.763151 88.7678054 31.2713536 89.0967758 31.7795562 89.5856866 32.0336537 90.2345525 32.0336537 90.8743433 32.0336537 91.359851 31.7795562 91.6910902 31.2713536 92.0223294 30.763151 92.1879465 30.1188324 92.1879465 29.3383783L92.1879465 29.1886408C92.1879465 28.4172619 92.021195 27.7752119 91.687687 27.2624718 91.3541791 26.7497317 90.8652683 26.4933654 90.22094 26.4933654 89.5811492 26.4933654 89.0967758 26.7497317 88.7678054 27.2624718 88.4388349 27.7752119 88.2743522 28.4172619 88.2743522 29.1886408L88.2743522 29.3383783zM98.7205861 26.7588092L98.0331548 26.7179717C97.679228 26.7179717 97.3808903 26.8019147 97.1381328 26.969803 96.8953753 27.1376914 96.7082053 27.3736391 96.5766171 27.6776531L96.5766171 32.9388851 95.2357857 32.9388851 95.2357857 25.5745216 96.4336858 25.5745216 96.5630046 26.6499092C96.7717307 26.2687573 97.0292312 25.9715539 97.3355141 25.7582903 97.6417969 25.5450268 97.994584 25.4383966 98.3938861 25.4383966 98.4937116 25.4383966 98.5889982 25.4463371 98.6797486 25.4622184 98.7704991 25.4780998 98.8453671 25.4951152 98.9043549 25.5132653L98.7205861 26.7588092zM103.007163 33.0818164C101.981683 33.0818164 101.166075 32.7403728 100.560316 32.0574756 99.9545564 31.3745783 99.6516813 30.4886402 99.6516813 29.3996346L99.6516813 29.1001596C99.6516813 28.0519917 99.9636313 27.1796659 100.587541 26.4831561 101.21145 25.7866462 101.949921 25.4383966 102.802975 25.4383966 103.796693 25.4383966 104.547642 25.7378686 105.055845 26.3368217 105.564047 26.9357748 105.818145 27.7343669 105.818145 28.732622L105.818145 29.5697909 101.040156 29.5697909 101.019738 29.6038221C101.03335 30.3116758 101.21258 30.8936044 101.557432 31.3496255 101.902283 31.8056466 102.385522 32.0336537 103.007163 32.0336537 103.460915 32.0336537 103.859077 31.968995 104.20166 31.8396756 104.544243 31.7103561 104.840312 31.532261 105.089876 31.3053849L105.613957 32.176585C105.350781 32.4352238 105.003665 32.6507529 104.572601 32.8231788 104.141536 32.9956047 103.619729 33.0818164 103.007163 33.0818164zM102.802975 26.4933654C102.353761 26.4933654 101.970346 26.6828042 101.652719 27.0616874 101.335092 27.4405706 101.139982 27.915869 101.067381 28.487597L101.080994 28.5216282 104.477313 28.5216282 104.477313 28.3446657C104.477313 27.818313 104.336652 27.3781798 104.055326 27.024253 103.773999 26.6703262 103.356553 26.4933654 102.802975 26.4933654zM42.6751934 14.8179226L42.6751934 7.88099164 44.8048693 7.88099164C45.7132815 7.88099164 46.4422236 8.15970483 46.9917177 8.71713956 47.5412118 9.2745743 47.8159547 9.99478189 47.8159547 10.8777839L47.8159547 11.8258947C47.8159547 12.712073 47.5412118 13.4322806 46.9917177 13.986539 46.4422236 14.5407975 45.7132815 14.8179226 44.8048693 14.8179226L42.6751934 14.8179226zM43.6137754 8.61946986L43.6137754 14.0842087 44.8048693 14.0842087C45.4464751 14.0842087 45.9522879 13.8729902 46.3223229 13.4505468 46.692358 13.0281034 46.8773727 12.4865581 46.8773727 11.8258947L46.8773727 10.8682552C46.8773727 10.2139443 46.692358 9.67557525 46.3223229 9.25313183 45.9522879 8.8306884 45.4464751 8.61946986 44.8048693 8.61946986L43.6137754 8.61946986zM49.9875571 14.8179226L49.0489751 14.8179226 49.0489751 9.66286813 49.9875571 9.66286813 49.9875571 14.8179226zM49.9875571 8.34313607L49.0489751 8.34313607 49.0489751 7.38549657 49.9875571 7.38549657 49.9875571 8.34313607zM54.4746461 13.4505468C54.4746461 13.2440895 54.3960347 13.0741618 54.2388095 12.9407586 54.0815843 12.8073554 53.7838138 12.6914234 53.3454891 12.5929592 52.7197646 12.4563797 52.2488902 12.271365 51.9328517 12.0379094 51.6168132 11.8044538 51.4587963 11.4860379 51.4587963 11.0826521 51.4587963 10.6633849 51.6366645 10.3060603 51.9924064 10.0106676 52.3481482 9.71527479 52.8118761 9.56758062 53.3836041 9.56758062 53.9839184 9.56758062 54.4611453 9.72162722 54.815299 10.0297251 55.1694526 10.3378229 55.3385863 10.7126167 55.322705 11.1541177L55.3131762 11.182704 54.4174736 11.182704C54.4174736 10.9571891 54.3229811 10.7547051 54.1339932 10.5752461 53.9450054 10.395787 53.6948782 10.3060588 53.3836041 10.3060588 53.0500961 10.3060588 52.802351 10.3791119 52.6403615 10.5252201 52.4783719 10.6713284 52.3973783 10.8476085 52.3973783 11.0540658 52.3973783 11.2573469 52.4688432 11.4177459 52.6117752 11.5352678 52.7547072 11.6527896 53.0453312 11.7576048 53.483656 11.8497166 54.1347906 11.9894723 54.6191639 12.1792513 54.9367905 12.4190594 55.2544172 12.6588676 55.4132281 12.9804597 55.4132281 13.3838455 55.4132281 13.8412279 55.2282134 14.2112573 54.8581783 14.493945 54.4881433 14.7766327 54.004564 14.9179745 53.4074259 14.9179745 52.7499388 14.9179745 52.2322152 14.751223 51.8542395 14.417715 51.4762638 14.0842071 51.2968074 13.6951203 51.315865 13.250443L51.3253938 13.2218567 52.2210964 13.2218567C52.2369777 13.5553647 52.3608503 13.7991395 52.5927177 13.9531884 52.8245852 14.1072373 53.0961518 14.1842606 53.4074259 14.1842606 53.7409339 14.1842606 54.0021779 14.116766 54.1911657 13.9817747 54.3801536 13.8467833 54.4746461 13.6697092 54.4746461 13.4505468zM61.0199454 12.4357348C61.0199454 13.1789811 60.8420771 13.7784924 60.4863353 14.2342866 60.1305935 14.6900808 59.6398677 14.9179745 59.0141432 14.9179745 58.6965166 14.9179745 58.4178034 14.8647728 58.1779953 14.7583679 57.9381872 14.651963 57.7341151 14.492358 57.565773 14.2795481L57.565773 16.7999029 56.627191 16.7999029 56.627191 9.66286813 57.3466117 9.66286813 57.4943074 10.3298807C57.6626495 10.082132 57.8722799 9.89314694 58.123205 9.76292002 58.37413 9.6326931 58.6663421 9.56758062 58.9998501 9.56758062 59.6382796 9.56758062 60.1345638 9.82088406 60.4887175 10.3274985 60.8428712 10.834113 61.0199454 11.5035011 61.0199454 12.3356829L61.0199454 12.4357348zM60.0813633 12.3356829C60.0813633 11.7512499 59.9662254 11.2708468 59.7359461 10.8944592 59.5056668 10.5180717 59.1666055 10.3298807 58.7187519 10.3298807 58.4487693 10.3298807 58.2184934 10.3910229 58.0279174 10.5133092 57.8373415 10.6355954 57.6832949 10.803141 57.565773 11.0159508L57.565773 13.5077193C57.6832949 13.7205291 57.8373415 13.8864866 58.0279174 14.0055965 58.2184934 14.1247065 58.4519455 14.1842606 58.7282807 14.1842606 59.1729579 14.1842606 59.5096371 14.0214794 59.7383283 13.6959121 59.9670195 13.3703448 60.0813633 12.9502899 60.0813633 12.4357348L60.0813633 12.3356829zM62.0004538 12.1927516C62.0004538 11.4304477 62.2069081 10.8023504 62.6198227 10.308441 63.0327373 9.81453162 63.5933399 9.56758062 64.3016473 9.56758062 65.0163072 9.56758062 65.5808801 9.81373757 65.9953828 10.3060588 66.4098856 10.7983801 66.6171339 11.4272714 66.6171339 12.1927516L66.6171339 12.2975679C66.6171339 13.0662243 66.4106796 13.6951156 65.997765 14.1842606 65.5848504 14.6734056 65.0226597 14.9179745 64.311176 14.9179745 63.5996924 14.9179745 63.0367076 14.6726116 62.6222049 14.1818784 62.2077021 13.6911453 62.0004538 13.0630481 62.0004538 12.2975679L62.0004538 12.1927516zM62.9390359 12.2975679C62.9390359 12.8438857 63.0541738 13.2949087 63.2844531 13.6506506 63.5147324 14.0063924 63.85697 14.1842606 64.311176 14.1842606 64.7590296 14.1842606 65.098885 14.0063924 65.3307524 13.6506506 65.5626199 13.2949087 65.6785519 12.8438857 65.6785519 12.2975679L65.6785519 12.1927516C65.6785519 11.6527863 65.5618258 11.2033514 65.3283702 10.8444333 65.0949147 10.4855152 64.7526771 10.3060588 64.3016473 10.3060588 63.8537937 10.3060588 63.5147324 10.4855152 63.2844531 10.8444333 63.0541738 11.2033514 62.9390359 11.6527863 62.9390359 12.1927516L62.9390359 12.2975679zM68.6505694 9.66286813L68.7172706 10.4299326C68.888789 10.1567737 69.1039778 9.94476111 69.3628435 9.79388846 69.6217092 9.64301581 69.9163035 9.56758062 70.2466352 9.56758062 70.8024818 9.56758062 71.2328595 9.73036183 71.537781 10.0559291 71.8427026 10.3814964 71.9951611 10.884133 71.9951611 11.563854L71.9951611 14.8179226 71.0565791 14.8179226 71.0565791 11.5829115C71.0565791 11.1287054 70.9668509 10.8063192 70.7873919 10.6157433 70.6079328 10.4251673 70.3339839 10.3298807 69.9655371 10.3298807 69.6955544 10.3298807 69.456544 10.3949932 69.2484985 10.5252201 69.0404531 10.655447 68.8744956 10.8333153 68.7506213 11.0588302L68.7506213 14.8179226 67.8120393 14.8179226 67.8120393 9.66286813 68.6505694 9.66286813zM74.4192754 14.8179226L73.4806934 14.8179226 73.4806934 9.66286813 74.4192754 9.66286813 74.4192754 14.8179226zM74.4192754 8.34313607L73.4806934 8.34313607 73.4806934 7.38549657 74.4192754 7.38549657 74.4192754 8.34313607zM80.3118552 12.4357348C80.3118552 13.1789811 80.1331929 13.7784924 79.7758629 14.2342866 79.418533 14.6900808 78.9270131 14.9179745 78.3012887 14.9179745 77.9614282 14.9179745 77.6660398 14.8520679 77.4151148 14.7202529 77.1641898 14.5884378 76.9561474 14.3938944 76.7909816 14.1366169L76.6766366 14.8179226 75.9095721 14.8179226 75.9095721 7.38549657 76.8481541 7.38549657 76.8481541 10.2727082C77.0101437 10.044017 77.2110395 9.86932501 77.4508476 9.74862689 77.6906557 9.62792877 77.970957 9.56758062 78.2917599 9.56758062 78.9270132 9.56758062 79.4225033 9.82167811 79.7782451 10.3298807 80.1339869 10.8380833 80.3118552 11.5066774 80.3118552 12.3356829L80.3118552 12.4357348zM79.3732732 12.3356829C79.3732732 11.7448973 79.2644877 11.2629062 79.0469135 10.8896949 78.8293392 10.5164836 78.4982184 10.3298807 78.0535411 10.3298807 77.7645009 10.3298807 77.5207261 10.4005516 77.3222095 10.5418954 77.1236928 10.6832393 76.9656759 10.8730184 76.8481541 11.1112383L76.8481541 13.3457305C76.9688522 13.5998318 77.1268691 13.7983455 77.3222095 13.9412775 77.5175498 14.0842095 77.7645009 14.1556744 78.0630699 14.1556744 78.5045709 14.1556744 78.8333095 13.9984516 79.0492956 13.6840012 79.2652818 13.3695508 79.3732732 12.9534662 79.3732732 12.4357348L79.3732732 12.3356829zM82.5168082 14.8179226L81.5782262 14.8179226 81.5782262 7.38549657 82.5168082 7.38549657 82.5168082 14.8179226zM86.1463096 14.9179745C85.4284734 14.9179745 84.8575481 14.678964 84.4335165 14.2009359 84.009485 13.7229079 83.7974724 13.1027512 83.7974724 12.3404473L83.7974724 12.1308147C83.7974724 11.3970972 84.0158374 10.7864692 84.452574 10.2989123 84.8893107 9.8113554 85.4062403 9.56758062 86.0033783 9.56758062 86.6989806 9.56758062 87.2246448 9.77721105 87.5803867 10.1964782 87.9361285 10.6157454 88.1139967 11.1747598 88.1139967 11.8735384L88.1139967 12.4595566 84.769405 12.4595566 84.7551119 12.4833785C84.7646407 12.9788761 84.8901013 13.3862261 85.1314976 13.7054409 85.3728938 14.0246556 85.7111611 14.1842606 86.1463096 14.1842606 86.4639362 14.1842606 86.7426494 14.1389995 86.9824575 14.0484759 87.2222656 13.9579523 87.4295139 13.8332858 87.6042085 13.6744724L87.9710655 14.2843125C87.786842 14.4653597 87.5438613 14.6162301 87.242116 14.7369282 86.9403707 14.8576263 86.5751055 14.9179745 86.1463096 14.9179745zM86.0033783 10.3060588C85.688928 10.3060588 85.4205375 10.438666 85.1981988 10.7038842 84.9758602 10.9691025 84.8392828 11.3018114 84.7884625 11.7020209L84.7979913 11.7258428 87.1754147 11.7258428 87.1754147 11.601969C87.1754147 11.2335221 87.076952 10.9254289 86.8800234 10.6776801 86.6830949 10.4299314 86.3908828 10.3060588 86.0033783 10.3060588zM94.682165 13.4505468C94.682165 13.2440895 94.6035536 13.0741618 94.4463284 12.9407586 94.2891032 12.8073554 93.9913327 12.6914234 93.553008 12.5929592 92.9272835 12.4563797 92.4564091 12.271365 92.1403706 12.0379094 91.8243321 11.8044538 91.6663152 11.4860379 91.6663152 11.0826521 91.6663152 10.6633849 91.8441834 10.3060603 92.1999253 10.0106676 92.5556671 9.71527479 93.019395 9.56758062 93.591123 9.56758062 94.1914373 9.56758062 94.6686641 9.72162722 95.0228178 10.0297251 95.3769715 10.3378229 95.5461052 10.7126167 95.5302238 11.1541177L95.5206951 11.182704 94.6249925 11.182704C94.6249925 10.9571891 94.5305 10.7547051 94.3415121 10.5752461 94.1525243 10.395787 93.9023971 10.3060588 93.591123 10.3060588 93.257615 10.3060588 93.0098699 10.3791119 92.8478804 10.5252201 92.6858908 10.6713284 92.6048972 10.8476085 92.6048972 11.0540658 92.6048972 11.2573469 92.6763621 11.4177459 92.8192941 11.5352678 92.9622261 11.6527896 93.2528501 11.7576048 93.6911748 11.8497166 94.3423094 11.9894723 94.8266828 12.1792513 95.1443094 12.4190594 95.4619361 12.6588676 95.620747 12.9804597 95.620747 13.3838455 95.620747 13.8412279 95.4357322 14.2112573 95.0656972 14.493945 94.6956622 14.7766327 94.2120829 14.9179745 93.6149448 14.9179745 92.9574577 14.9179745 92.4397341 14.751223 92.0617584 14.417715 91.6837827 14.0842071 91.5043263 13.6951203 91.5233839 13.250443L91.5329127 13.2218567 92.4286153 13.2218567C92.4444966 13.5553647 92.5683692 13.7991395 92.8002366 13.9531884 93.032104 14.1072373 93.3036707 14.1842606 93.6149448 14.1842606 93.9484528 14.1842606 94.2096968 14.116766 94.3986846 13.9817747 94.5876725 13.8467833 94.682165 13.6697092 94.682165 13.4505468zM100.107836 14.0556225C99.9458464 14.3319577 99.7378041 14.5447643 99.4837028 14.6940488 99.2296014 14.8433333 98.9358012 14.9179745 98.6022933 14.9179745 98.0400941 14.9179745 97.6017759 14.7385181 97.2873256 14.3796 96.9728752 14.0206819 96.8156524 13.4616675 96.8156524 12.7025398L96.8156524 9.66286813 97.7542344 9.66286813 97.7542344 12.7120686C97.7542344 13.2615626 97.835228 13.6395326 97.9972175 13.84599 98.1592071 14.0524473 98.4117165 14.1556744 98.7547533 14.1556744 99.0882612 14.1556744 99.3637982 14.0881797 99.5813725 13.9531884 99.7989467 13.8181971 99.963316 13.6268299 100.074485 13.3790811L100.074485 9.66286813 101.013067 9.66286813 101.013067 14.8179226 100.169773 14.8179226 100.107836 14.0556225zM104.866494 10.4918695L104.385292 10.4632832C104.137544 10.4632832 103.928707 10.5220433 103.758777 10.6395651 103.588847 10.757087 103.457828 10.9222504 103.365716 11.1350602L103.365716 14.8179226 102.427134 14.8179226 102.427134 9.66286813 103.265664 9.66286813 103.356187 10.4156395C103.502296 10.1488331 103.682546 9.94079079 103.896944 9.79150627 104.111342 9.64222176 104.358293 9.56758062 104.637804 9.56758062 104.707682 9.56758062 104.774383 9.573139 104.837908 9.58425593 104.901433 9.59537287 104.953841 9.60728369 104.995132 9.61998875L104.866494 10.4918695z"/>
    <path fill="#FFF" d="M4.87872067,29.456123 L4.87872067,5.39468426 C4.87872067,4.55503912 5.36550587,3.82924705 6.07191479,3.48480048 L19.9903076,17.421299 L6.06631712,31.3632043 C5.36293321,31.0177104 4.87872067,30.2936026 4.87872067,29.456123 Z M24.4059641,21.8425176 L9.18708847,30.6405119 L21.1898486,18.6222479 L24.4059641,21.8425176 Z M29.1365601,15.7385552 C29.6427534,16.1265105 29.9692841,16.7378126 29.9692841,17.4254036 C29.9692841,18.1026624 29.6526483,18.7057552 29.1594597,19.0944182 L25.9268056,20.9632843 L22.3892482,17.421299 L25.9244026,13.88155 L29.1365601,15.7385552 Z M9.19600799,4.21096055 L24.4035611,13.0023733 L21.1898486,16.2202086 L9.19600799,4.21096055 Z" transform="translate(3.485 3.485)"/>
  </g>
</svg>
