<svg xmlns="http://www.w3.org/2000/svg" width="29" height="34" viewBox="0 0 29 34">
    <path fill="#00BDCC" fill-rule="evenodd" stroke="#00BDCC" d="M21.182 31.348v-2.612a2.02 2.02 0 0 1 2.02-2.02h2.774l-4.794 4.632zm-10.283.723a2.052 2.052 0 0 1-2.048-2.049V14.96h17.772v10.673H23.2a3.107 3.107 0 0 0-3.103 3.103v3.335h-9.199zm-5.433-5.084V11.915h2.297V29.1a.536.536 0 0 0-.26-.065 2.052 2.052 0 0 1-2.037-2.049zm-1.334-1.333a2.052 2.052 0 0 1-2.048-2.052V8.532h2.298v17.184a.536.536 0 0 0-.25-.062zm0-23.57h13.675a2.052 2.052 0 0 1 2.049 2.048c0 .087.023.173.065.25H7.503a3.136 3.136 0 0 0-3.129 3.063h-2.29V4.132a2.052 2.052 0 0 1 2.048-2.048zm19.102 5.343H10.899a3.136 3.136 0 0 0-3.132 3.133v.27H5.466V7.504a2.052 2.052 0 0 1 2.037-2.037H21.19a2.052 2.052 0 0 1 2.045 1.961zm3.389 3.133v3.313H8.85V10.56a2.052 2.052 0 0 1 2.048-2.049H24.57c1.132 0 2.05.917 2.053 2.049zm1.05 16.052v-.98l.033-15.072a3.136 3.136 0 0 0-3.132-3.133h-.253a3.136 3.136 0 0 0-3.129-3.045h-.321a.537.537 0 0 0 .065-.25A3.136 3.136 0 0 0 17.806 1H4.133A3.136 3.136 0 0 0 1 4.132v19.47a3.136 3.136 0 0 0 3.132 3.133.533.533 0 0 0 .25-.065v.31a3.136 3.136 0 0 0 3.121 3.14.537.537 0 0 0 .25-.065 3.136 3.136 0 0 0 3.146 3.1l9.199-.03h.823l6.753-6.513z"/>
</svg>
