<svg xmlns="http://www.w3.org/2000/svg" xmlns:xlink="http://www.w3.org/1999/xlink" width="54" height="70" viewBox="0 0 54 70">
    <defs>
        <path id="a" d="M0 .106h53.575v48.252H0z"/>
        <path id="c" d="M.125 70.757H53.7V1.16H.125z"/>
    </defs>
    <g fill="none" fill-rule="evenodd" transform="translate(0 -1)">
        <g transform="translate(.125 1.055)">
            <mask id="b" fill="#fff">
                <use xlink:href="#a"/>
            </mask>
            <path fill="#00C1F2" d="M27.757 6.491c11.175.673 19.803 9.323 19.207 19.259-.598 9.935-10.2 17.49-21.376 16.82-11.175-.673-19.803-9.324-19.206-19.259.597-9.935 10.2-17.492 21.375-16.82M9.727.57S1.217.685.203 12.152C-.812 23.62 2.256 37.914 3.41 41.295c1.154 3.382 3.475 6.106 11.894 6.797 8.416.693 33.795.085 34.867-2.437 1.138-2.674 2.03-13.208 3.036-22.558 1.024-9.504.51-19.045-9.571-20.754C26.707-1.258 9.727.569 9.727.569" mask="url(#b)"/>
        </g>
        <path fill="#2B2E30" d="M.353 70.653h2.713v-5.557H6v-2.4H3.066V59.76h3.07v-2.529H.354zM9.993 64.32v-4.726a4.36 4.36 0 0 1 .87-.092c1.126 0 1.501 1.237 1.501 2.382 0 1.661-.734 3.101-2.371 2.437m3.037-6.887c-.82-.461-1.758-.498-2.56-.498-.784 0-2.44.277-3.14.295v13.422h2.663v-4.135h.29l1.825 4.135h2.918l-2.065-4.338c1.143-.443 1.894-1.532 2.065-3.804.085-2.787-.648-4.338-1.996-5.077"/>
        <mask id="d" fill="#fff">
            <use xlink:href="#c"/>
        </mask>
        <path fill="#2B2E30" d="M16.118 70.653h2.78V57.231h-2.78zM20.366 59.76h3.532l-3.839 9.195v1.698h6.347v-2.621h-3.02l3.6-8.88v-1.92h-6.62zM30.756 68.143v-3.398c1.45-.203 2.509.037 2.526 1.81.017 1.385-.785 2.012-2.526 1.588zm0-8.475c1.28-.37 2.184-.147 2.184 1.404 0 1.698-.904 1.735-2.184 1.606v-3.01zm3.174 3.693c1.143-.462 1.723-1.606 1.723-2.806 0-1.053-.29-2.087-1.058-2.807-.75-.702-1.91-.812-2.866-.812-1.28 0-2.44.221-3.634.295v13.422c.41-.018.836-.037 1.263-.037.631 0 1.245.074 1.893.111 1.74.11 3.004-.074 3.839-.776.836-.701 1.314-1.864 1.314-3.101.034-1.846-.802-3.194-2.474-3.489zM37.496 70.653h2.78V57.231h-2.78zM48.364 57.231h-6.62v2.53h3.532l-3.839 9.194v1.698h6.347v-2.622h-3.02l3.6-8.88z" mask="url(#d)"/>
        <path fill="#00C1F2" d="M52.361 70.11c0-.292.224-.543.516-.543.292 0 .53.244.53.543 0 .285-.225.543-.516.543a.537.537 0 0 1-.53-.543M51.085 66.756c-.197.19-.326.4-.326.618 0 .597.468.957.977.957.51 0 .978-.36.978-.957a.785.785 0 0 0-.305-.632l.583-.542c.333.332.456.888.456 1.174 0 .985-.687 1.771-1.712 1.771-1.024 0-1.71-.786-1.71-1.771 0-.415.15-.869.495-1.182l.564.564z" mask="url(#d)"/>
        <path fill="#00C1F2" d="M52.714 64.44c0-.596-.468-.956-.977-.956-.51 0-.978.36-.978.957s.468.957.978.957c.509 0 .977-.36.977-.957m-2.688 0c0-.985.686-1.772 1.71-1.772 1.025 0 1.712.787 1.712 1.772 0 .984-.687 1.771-1.711 1.771-1.025 0-1.711-.787-1.711-1.771M50.107 62.282v-.774h.51v-.014c-.306-.142-.591-.454-.591-.998 0-.502.197-.848.604-1.018-.414-.238-.604-.583-.604-1.072 0-.87.618-1.175 1.398-1.175h1.942v.815H51.52c-.408 0-.761.122-.761.604 0 .51.42.7.842.7h1.765v.814h-1.942c-.4 0-.665.162-.665.556 0 .537.394.747.828.747h1.779v.815h-3.259z" mask="url(#d)"/>
    </g>
</svg>
