<svg xmlns="http://www.w3.org/2000/svg" width="70" height="70" viewBox="0 0 70 70">
    <g fill="none" fill-rule="nonzero">
        <path fill="#DCDD3A" d="M70 70H0V0h70z"/>
        <path fill="#C60166" d="M35.627 53.14c.497-.491 1.448-.74 2.825-.74.052 0 .105 0 .155.002l.001 1.389c0 .144-.022.274-.066.384-.225.647-.87 1.336-2.016 1.338-.631 0-1.306-.354-1.307-1.344 0-.425.133-.76.408-1.03m4.047 1.254l-.006-2.829c0-1.963-.935-3.002-2.705-3.002-.789 0-1.628.242-2.251.646l-.115.076.367.836.168-.116c.469-.33 1.094-.513 1.784-.515 1.136 0 1.69.638 1.69 1.954v.036c-1.78.008-3.055.377-3.79 1.103-.462.452-.693 1.027-.691 1.71 0 1.034.726 2.145 2.322 2.145h.005c1.02 0 1.795-.466 2.258-.977l.085.81h1.017l-.033-.189c-.09-.568-.105-1.173-.105-1.688M45.42 48.563c-.962.001-1.844.44-2.373 1.148l-.032-.978H42l.015.178c.043.557.061 1.048.063 1.755l.006 5.772h1.05l-.006-4.744c0-.248.058-.505.082-.596.275-.935 1.105-1.589 2.016-1.59 1.6 0 1.843 1.501 1.844 2.396l.003 4.529h1.052l-.004-4.591c-.003-3.121-2.246-3.28-2.7-3.28M52.851 49.327v.163c.582 0 1.052.175 1.398.514.523.516.628 1.27.642 1.69l-4.32.005c.113-.627.576-2.206 2.277-2.21l.003-.162zm.09-.764c-2.1.001-3.505 1.642-3.503 4.084 0 2.267 1.46 3.793 3.63 3.79h.004c1.374-.002 2.144-.343 2.413-.488l.118-.066-.286-.861-.172.077c-.43.203-.966.392-1.984.393-1.644 0-2.606-1.053-2.66-2.896l5.436-.001.03-.13c.033-.15.033-.269.033-.474 0-.35-.09-3.428-3.06-3.428zM23.625 56.875l-3.904-5.69 3.727-4.81h-2.836s-2.306 3.394-3.023 4.464v-4.464h-2.277v10.5h2.277v-5.4l3.366 5.4h2.67z"/>
        <path fill="#FFF" d="M56 13.563H15.312v4.776H33.95L15.372 34.856v6.269l20.43-18.129 20.106 17.787V34.52l-18.26-16.181H56z"/>
        <path fill="#FFF" d="M29.75 37.625H35v-5.25h-5.25zM35.875 37.625h5.25v-5.25h-5.25zM29.75 43.75H35V38.5h-5.25zM35.875 43.75h5.25V38.5h-5.25z"/>
        <path fill="#C60166" d="M28.827 55.93c-1.068 0-1.953-.68-2.255-1.73a2.071 2.071 0 0 1-.058-.5l-.003-1.473c0-.234.041-.42.085-.598.317-1.105 1.236-1.848 2.289-1.85h.004c1.66 0 2.418 1.56 2.42 3.01.001 1.906-.971 3.14-2.482 3.14m.241-7.095c-1.09 0-1.98.417-2.557 1.189l-.004-3.648H25.44l.01 8.448c0 .694-.02 1.268-.058 1.708l-.017.181h.998l.046-1.02c.6.796 1.428 1.183 2.514 1.183h.005c.881 0 1.741-.378 2.36-1.035.705-.75 1.079-1.81 1.077-3.066-.002-2.32-1.36-3.94-3.307-3.94"/>
    </g>
</svg>
