<svg xmlns="http://www.w3.org/2000/svg" width="34" height="40" viewBox="0 0 34 40">
    <path fill="#00BDCC" fill-rule="nonzero" stroke="#00BDCC" d="M16.934 1.151a1.272 1.272 0 0 0-.487.118L1.711 8.315C1.277 8.525 1 8.96 1 9.438v5.65c0 10.515 6.347 19.53 15.487 23.528.327.144.7.144 1.026 0C26.654 34.618 33 25.603 33 15.088v-5.65a1.252 1.252 0 0 0-.71-1.123L17.552 1.27a1.272 1.272 0 0 0-.619-.118zM17 3.787l13.474 6.447v4.854c0 9.31-5.506 17.249-13.474 20.97-7.967-3.722-13.474-11.66-13.474-20.97v-4.854L17 3.787zm7.46 9.879c-.282.03-.547.154-.75.352l-8.802 8.339-3.75-3.72a1.27 1.27 0 0 0-1.248-.393c-.458.11-.816.462-.93.915-.113.453.036.93.388 1.24L14 24.993a1.27 1.27 0 0 0 1.763.026l9.684-9.187c.4-.366.518-.945.294-1.436a1.265 1.265 0 0 0-1.28-.73z"/>
</svg>
