<svg xmlns="http://www.w3.org/2000/svg" width="27" height="34" viewBox="0 0 27 34">
    <path fill="#00BDCC" fill-rule="nonzero" d="M6.108 12.111c-1.259-.106-2.33-.36-2.784-.856a1.164 1.164 0 0 1-.298-1.047c.303-1.424 2.136-2.602 3.076-3.121V4.77c0-1.265.523-2.479 1.456-3.374A5.084 5.084 0 0 1 11.076 0h4.949C18.772 0 21 2.136 21 4.77v7.09c0 3.944-3.334 7.14-7.446 7.14-4.012.002-7.305-3.044-7.446-6.889zm13.237-.257l.007-3.712h-1.09c-2.6 3.343-7.196 3.901-7.398 3.925h-.033c-.814.06-1.839.114-2.873.114h-.195c.094 3.067 2.763 5.48 5.962 5.39 3.198-.09 5.715-2.65 5.62-5.717zM7.756 4.771v1.6H19.35v-1.6c-.001-1.758-1.487-3.183-3.32-3.184h-4.954c-1.833.002-3.318 1.426-3.32 3.184zm0 3.37l-.006 2.441c.907.008 1.92-.02 2.925-.094.225-.03 3.204-.444 5.355-2.348H7.756zm-1.654.832c-.6.414-1.147.893-1.369 1.312.445.129.905.205 1.369.227V8.973zM17.986 19c2.39 0 4.683.95 6.374 2.642A9.03 9.03 0 0 1 27 28.024V34H0v-5.976c0-2.394.95-4.69 2.64-6.382A9.007 9.007 0 0 1 9.014 19h.198l4.31 2.822h.176l-.088.058.088-.058 2.514-1.66h.013L17.985 19zm-4.372 4.867l-.91-.594-2.19-1.436H5.931a.176.176 0 0 0-.176.2l.778 5.683h14.44l.732-5.709a.18.18 0 0 0-.176-.2l-4.808.008-2.2 1.449-.908.6zM6.756 29.38l.262 1.908 13.493.024.248-1.932H6.756zm-5.103-1.356v4.324h3.832l-1.345-9.84a7.346 7.346 0 0 0-2.487 5.516zm23.689 4.316v-4.324a7.347 7.347 0 0 0-2.08-5.125L22.05 32.34h3.291z"/>
</svg>
