<svg xmlns="http://www.w3.org/2000/svg" width="31" height="33" viewBox="0 0 31 33">
    <path fill="#00BDCC" fill-rule="evenodd" d="M24.671 13.484a8.773 8.773 0 0 0-1.878 2.691h-1.7v-5.364h.947V8.783h-3.901v2.028h.947v5.364H17.39a9.06 9.06 0 0 0-1.906-2.714 6.64 6.64 0 0 1-1.987-4.9c.067-3.552 2.986-6.482 6.505-6.531a6.516 6.516 0 0 1 4.73 1.917 6.668 6.668 0 0 1 1.967 4.78 6.664 6.664 0 0 1-2.018 4.757m-2.668 6.354v.501h-3.836v-.535a8.8 8.8 0 0 0-.147-1.6h4.131a8.925 8.925 0 0 0-.153 1.634m4.128-17.336A8.508 8.508 0 0 0 20.092 0h-.125a8.524 8.524 0 0 0-5.943 2.534 8.69 8.69 0 0 0-2.543 6.201 8.685 8.685 0 0 0 2.6 6.176 6.828 6.828 0 0 1 2.085 4.891v2.565h7.85v-2.529a6.865 6.865 0 0 1 2.053-4.894A8.7 8.7 0 0 0 28.7 8.738a8.704 8.704 0 0 0-2.564-6.236m2.13 24.501l-11.508 3.762-10.132-3.65-4.596 1.482v-4.535l4.304-1.589a6 6 0 0 1 4.74.438l8.68 4.68 7.92-2.585a.979.979 0 0 1 .764.075c.235.128.41.347.488.609a1.057 1.057 0 0 1-.657 1.31m2.593-1.943a3.084 3.084 0 0 0-1.472-1.855 2.955 2.955 0 0 0-2.322-.228l-7.12 2.327-7.952-4.28a7.948 7.948 0 0 0-6.29-.57L0 22.558v8.914l6.593-2.126L16.723 33l12.148-3.969c1.607-.547 2.491-2.313 1.988-3.97"/>
</svg>
