<svg xmlns="http://www.w3.org/2000/svg" width="119" height="43" viewBox="0 0 119 43">
  <g fill="none" fill-rule="evenodd" transform="translate(.502 .498)">
    <rect width="118.483" height="41.818" fill="#032526" rx="4.182"/>
    <path fill="#FFF" fill-rule="nonzero" d="M48.4128629 30.386541L44.2610498 30.386541 43.3217872 32.9388851 41.9537308 32.9388851 45.7856501 23.0289837 46.9359065 23.0289837 50.7065695 32.9388851 49.338513 32.9388851 48.4128629 30.386541zM44.6762312 29.2635096L48.0112941 29.2635096 46.3777939 24.7509652 46.3369564 24.7509652 44.6762312 29.2635096zM58.158053 29.5357596C58.158053 30.5975401 57.9039555 31.4539848 57.3957529 32.1051193 56.8875503 32.7562539 56.1865135 33.0818164 55.2926214 33.0818164 54.838869 33.0818164 54.4407073 33.005814 54.0981243 32.853807 53.7555413 32.7017999 53.4640098 32.4737928 53.2235211 32.1697787L53.2235211 35.7702855 51.8826897 35.7702855 51.8826897 25.5745216 52.9104335 25.5745216 53.1214273 26.5273967C53.3619161 26.1734699 53.6613881 25.9034913 54.0198524 25.7174528 54.3783168 25.5314144 54.7957627 25.4383966 55.2722026 25.4383966 56.1842448 25.4383966 56.8932222 25.8002586 57.399156 26.5239936 57.9050899 27.2477285 58.158053 28.2039972 58.158053 29.3928283L58.158053 29.5357596zM56.8172216 29.3928283C56.8172216 28.5579241 56.6527388 27.871634 56.3237684 27.3339374 55.9947979 26.7962409 55.5104246 26.5273967 54.8706338 26.5273967 54.4849443 26.5273967 54.1559788 26.6147427 53.8837274 26.7894374 53.611476 26.964132 53.3914094 27.2034828 53.2235211 27.5074968L53.2235211 31.0671661C53.3914094 31.3711801 53.611476 31.6082622 53.8837274 31.7784193 54.1559788 31.9485764 54.4894818 32.0336537 54.8842463 32.0336537 55.5194996 32.0336537 56.0004698 31.8011091 56.3271715 31.336013 56.6538732 30.8709169 56.8172216 30.2708384 56.8172216 29.5357596L56.8172216 29.3928283zM66.1472304 29.5357596C66.1472304 30.5975401 65.8931329 31.4539848 65.3849303 32.1051193 64.8767277 32.7562539 64.1756908 33.0818164 63.2817987 33.0818164 62.8280464 33.0818164 62.4298847 33.005814 62.0873017 32.853807 61.7447187 32.7017999 61.4531872 32.4737928 61.2126984 32.1697787L61.2126984 35.7702855 59.871867 35.7702855 59.871867 25.5745216 60.8996109 25.5745216 61.1106047 26.5273967C61.3510934 26.1734699 61.6505655 25.9034913 62.0090298 25.7174528 62.3674941 25.5314144 62.78494 25.4383966 63.26138 25.4383966 64.1734222 25.4383966 64.8823995 25.8002586 65.3883334 26.5239936 65.8942672 27.2477285 66.1472304 28.2039972 66.1472304 29.3928283L66.1472304 29.5357596zM64.8063989 29.3928283C64.8063989 28.5579241 64.6419162 27.871634 64.3129457 27.3339374 63.9839753 26.7962409 63.499602 26.5273967 62.8598112 26.5273967 62.4741217 26.5273967 62.1451562 26.6147427 61.8729048 26.7894374 61.6006534 26.964132 61.3805868 27.2034828 61.2126984 27.5074968L61.2126984 31.0671661C61.3805868 31.3711801 61.6006534 31.6082622 61.8729048 31.7784193 62.1451562 31.9485764 62.4786591 32.0336537 62.8734237 32.0336537 63.5086769 32.0336537 63.9896472 31.8011091 64.3163489 31.336013 64.6430505 30.8709169 64.8063989 30.2708384 64.8063989 29.5357596L64.8063989 29.3928283zM77.0413156 30.440991C77.0413156 29.9872387 76.8711611 29.6072268 76.5308468 29.300944 76.1905326 28.9946611 75.587051 28.7371606 74.7203841 28.5284345 73.6722162 28.2788707 72.8543399 27.9113368 72.2667306 27.4258218 71.6791213 26.9403068 71.3853211 26.3300191 71.3853211 25.5949403 71.3853211 24.8235614 71.7018086 24.1792427 72.3347931 23.6619651 72.9677776 23.1446874 73.7879226 22.8860525 74.7952528 22.8860525 75.8797209 22.8860525 76.7429718 23.1832558 77.3850313 23.7776713 78.0270909 24.3720869 78.3367722 25.0617801 78.3140846 25.8467716L78.3004721 25.8876091 77.0208969 25.8876091C77.0208969 25.3068061 76.8291894 24.8371795 76.4457687 24.4787152 76.062348 24.1202508 75.5121815 23.9410213 74.7952528 23.9410213 74.1282369 23.9410213 73.6166388 24.0918917 73.2604432 24.393637 72.9042477 24.6953823 72.7261525 25.0890066 72.7261525 25.5745216 72.7261525 26.0055863 72.9189944 26.3651796 73.3046839 26.6533123 73.6903733 26.9414451 74.3165422 27.1944082 75.1832091 27.4122093 76.2268395 27.6708482 77.0208942 28.0519944 77.565397 28.5556595 78.1098998 29.0593246 78.3821471 29.6832247 78.3821471 30.4273785 78.3821471 31.2259826 78.0554503 31.8680325 77.4020469 32.3535475 76.7486436 32.8390625 75.895602 33.0818164 74.8428966 33.0818164 73.8537165 33.0818164 72.979122 32.8141065 72.2190868 32.2786787 71.4590517 31.743251 71.0903834 31.0263331 71.1130711 30.1279035L71.1266836 30.0870659 72.4062587 30.0870659C72.4062587 30.7223192 72.6399377 31.2055582 73.1073026 31.5367974 73.5746675 31.8680366 74.153193 32.0336537 74.8428966 32.0336537 75.5189876 32.0336537 76.0544073 31.8907239 76.4491718 31.6048599 76.8439363 31.3189959 77.0413156 30.9310435 77.0413156 30.440991zM81.9200363 23.7980901L81.9200363 25.5745216 83.3153178 25.5745216 83.3153178 26.5682342 81.9200363 26.5682342 81.9200363 31.0399411C81.9200363 31.3847928 81.9915012 31.6275467 82.1344332 31.7682099 82.2773652 31.9088731 82.466804 31.9792037 82.7027552 31.9792037 82.7798931 31.9792037 82.8649703 31.9701288 82.9579896 31.9519787 83.0510088 31.9338286 83.1338174 31.9111413 83.2064177 31.8839162L83.3833803 32.8027601C83.2835547 32.8844355 83.1372218 32.951363 82.9443771 33.0035445 82.7515323 33.055726 82.5575561 33.0818164 82.3624426 33.0818164 81.8179398 33.0818164 81.3846128 32.9173336 81.0624487 32.5883632 80.7402845 32.2593927 80.5792049 31.7432572 80.5792049 31.0399411L80.5792049 26.5682342 79.4085297 26.5682342 79.4085297 25.5745216 80.5792049 25.5745216 80.5792049 23.7980901 81.9200363 23.7980901zM84.7228504 29.1886408C84.7228504 28.0996352 85.017785 27.2023535 85.6076631 26.4967686 86.1975411 25.7911837 86.998402 25.4383966 88.0102697 25.4383966 89.0312124 25.4383966 89.8377451 25.7900493 90.4298919 26.4933654 91.0220387 27.1966816 91.3181076 28.0950977 91.3181076 29.1886408L91.3181076 29.3383783C91.3181076 30.436459 91.023173 31.3348751 90.433295 32.0336537 89.843417 32.7324323 89.0402874 33.0818164 88.0238822 33.0818164 87.0074769 33.0818164 86.203213 32.7312979 85.6110662 32.0302506 85.0189194 31.3292032 84.7228504 30.4319215 84.7228504 29.3383783L84.7228504 29.1886408zM86.0636819 29.3383783C86.0636819 30.1188324 86.2281646 30.763151 86.5571351 31.2713536 86.8861055 31.7795562 87.3750163 32.0336537 88.0238822 32.0336537 88.6636729 32.0336537 89.1491807 31.7795562 89.4804199 31.2713536 89.8116591 30.763151 89.9772762 30.1188324 89.9772762 29.3383783L89.9772762 29.1886408C89.9772762 28.4172619 89.8105247 27.7752119 89.4770167 27.2624718 89.1435088 26.7497317 88.654598 26.4933654 88.0102697 26.4933654 87.3704789 26.4933654 86.8861055 26.7497317 86.5571351 27.2624718 86.2281646 27.7752119 86.0636819 28.4172619 86.0636819 29.1886408L86.0636819 29.3383783zM96.5099158 26.7588092L95.8224845 26.7179717C95.4685577 26.7179717 95.17022 26.8019147 94.9274625 26.969803 94.684705 27.1376914 94.497535 27.3736391 94.3659468 27.6776531L94.3659468 32.9388851 93.0251153 32.9388851 93.0251153 25.5745216 94.2230155 25.5745216 94.3523343 26.6499092C94.5610604 26.2687573 94.8185609 25.9715539 95.1248438 25.7582903 95.4311266 25.5450268 95.7839137 25.4383966 96.1832158 25.4383966 96.2830413 25.4383966 96.3783279 25.4463371 96.4690783 25.4622184 96.5598288 25.4780998 96.6346968 25.4951152 96.6936846 25.5132653L96.5099158 26.7588092zM100.796493 33.0818164C99.7710124 33.0818164 98.9554048 32.7403728 98.3496455 32.0574756 97.7438861 31.3745783 97.441011 30.4886402 97.441011 29.3996346L97.441011 29.1001596C97.441011 28.0519917 97.752961 27.1796659 98.3768705 26.4831561 99.0007799 25.7866462 99.7392508 25.4383966 100.592305 25.4383966 101.586023 25.4383966 102.336972 25.7378686 102.845174 26.3368217 103.353377 26.9357748 103.607474 27.7343669 103.607474 28.732622L103.607474 29.5697909 98.8294862 29.5697909 98.8090674 29.6038221C98.82268 30.3116758 99.0019095 30.8936044 99.3467612 31.3496255 99.691613 31.8056466 100.174852 32.0336537 100.796493 32.0336537 101.250245 32.0336537 101.648407 31.968995 101.99099 31.8396756 102.333573 31.7103561 102.629642 31.532261 102.879205 31.3053849L103.403287 32.176585C103.14011 32.4352238 102.792995 32.6507529 102.36193 32.8231788 101.930866 32.9956047 101.409058 33.0818164 100.796493 33.0818164zM100.592305 26.4933654C100.14309 26.4933654 99.7596754 26.6828042 99.4420487 27.0616874 99.1244221 27.4405706 98.9293115 27.915869 98.8567112 28.487597L98.8703237 28.5216282 102.266643 28.5216282 102.266643 28.3446657C102.266643 27.818313 102.125982 27.3781798 101.844655 27.024253 101.563329 26.6703262 101.145883 26.4933654 100.592305 26.4933654zM47.3728678 8.61946986L45.14314 8.61946986 45.14314 14.8179226 44.204558 14.8179226 44.204558 8.61946986 41.9795945 8.61946986 41.9795945 7.88099164 47.3728678 7.88099164 47.3728678 8.61946986zM49.9780284 14.9179745C49.2601922 14.9179745 48.6892669 14.678964 48.2652353 14.2009359 47.8412038 13.7229079 47.6291912 13.1027512 47.6291912 12.3404473L47.6291912 12.1308147C47.6291912 11.3970972 47.8475562 10.7864692 48.2842928 10.2989123 48.7210294 9.8113554 49.237959 9.56758062 49.8350971 9.56758062 50.5306994 9.56758062 51.0563636 9.77721105 51.4121054 10.1964782 51.7678473 10.6157454 51.9457155 11.1747598 51.9457155 11.8735384L51.9457155 12.4595566 48.6011238 12.4595566 48.5868307 12.4833785C48.5963595 12.9788761 48.7218201 13.3862261 48.9632164 13.7054409 49.2046126 14.0246556 49.5428799 14.1842606 49.9780284 14.1842606 50.295655 14.1842606 50.5743682 14.1389995 50.8141763 14.0484759 51.0539844 13.9579523 51.2612327 13.8332858 51.4359273 13.6744724L51.8027842 14.2843125C51.6185608 14.4653597 51.3755801 14.6162301 51.0738348 14.7369282 50.7720895 14.8576263 50.4068243 14.9179745 49.9780284 14.9179745zM49.8350971 10.3060588C49.5206467 10.3060588 49.2522563 10.438666 49.0299176 10.7038842 48.807579 10.9691025 48.6710016 11.3018114 48.6201813 11.7020209L48.6297101 11.7258428 51.0071335 11.7258428 51.0071335 11.601969C51.0071335 11.2335221 50.9086707 10.9254289 50.7117422 10.6776801 50.5148137 10.4299314 50.2226016 10.3060588 49.8350971 10.3060588zM50.2686553 7.66659473L51.3644617 7.66659473 51.3739904 7.69518099 50.087609 8.93391866 49.3872458 8.93391866 50.2686553 7.66659473zM54.0601454 14.8179226L53.1215634 14.8179226 53.1215634 7.38549657 54.0601454 7.38549657 54.0601454 14.8179226zM57.6896468 14.9179745C56.9718106 14.9179745 56.4008853 14.678964 55.9768537 14.2009359 55.5528222 13.7229079 55.3408096 13.1027512 55.3408096 12.3404473L55.3408096 12.1308147C55.3408096 11.3970972 55.5591746 10.7864692 55.9959112 10.2989123 56.4326478 9.8113554 56.9495774 9.56758062 57.5467155 9.56758062 58.2423178 9.56758062 58.767982 9.77721105 59.1237238 10.1964782 59.4794657 10.6157454 59.6573339 11.1747598 59.6573339 11.8735384L59.6573339 12.4595566 56.3127422 12.4595566 56.2984491 12.4833785C56.3079779 12.9788761 56.4334385 13.3862261 56.6748348 13.7054409 56.916231 14.0246556 57.2544983 14.1842606 57.6896468 14.1842606 58.0072734 14.1842606 58.2859866 14.1389995 58.5257947 14.0484759 58.7656028 13.9579523 58.9728511 13.8332858 59.1475457 13.6744724L59.5144026 14.2843125C59.3301792 14.4653597 59.0871985 14.6162301 58.7854532 14.7369282 58.4837079 14.8576263 58.1184427 14.9179745 57.6896468 14.9179745zM57.5467155 10.3060588C57.2322651 10.3060588 56.9638747 10.438666 56.741536 10.7038842 56.5191974 10.9691025 56.38262 11.3018114 56.3317997 11.7020209L56.3413285 11.7258428 58.7187519 11.7258428 58.7187519 11.601969C58.7187519 11.2335221 58.6202891 10.9254289 58.4233606 10.6776801 58.2264321 10.4299314 57.93422 10.3060588 57.5467155 10.3060588zM57.9802737 7.66659473L59.0760801 7.66659473 59.0856088 7.69518099 57.7992274 8.93391866 57.0988642 8.93391866 57.9802737 7.66659473zM62.8532771 14.1842606C63.1645512 14.1842606 63.4385 14.08818 63.6751319 13.8960159 63.9117637 13.7038518 64.0300779 13.4680176 64.0300779 13.1885061L64.8733724 13.1885061 64.8829011 13.2170924C64.8987825 13.6617697 64.7010628 14.0564148 64.2897364 14.4010397 63.8784099 14.7456646 63.3995949 14.9179745 62.8532771 14.9179745 62.1036782 14.9179745 61.5303708 14.6734056 61.1333375 14.1842606 60.7363042 13.6951156 60.5377905 13.0805173 60.5377905 12.3404473L60.5377905 12.1403435C60.5377905 11.406626 60.7370982 10.7944098 61.1357197 10.3036767 61.5343411 9.81294351 62.1068545 9.56758062 62.8532771 9.56758062 63.4567677 9.56758062 63.9498756 9.74544886 64.3326157 10.1011907 64.7153558 10.4569325 64.9003706 10.8936626 64.8876655 11.411394L64.8781367 11.4399803 64.0300779 11.4399803C64.0300779 11.1255299 63.9189102 10.8579335 63.6965716 10.637183 63.4742329 10.4164324 63.1931376 10.3060588 62.8532771 10.3060588 62.3609558 10.3060588 62.0091896 10.483133 61.7979679 10.8372867 61.5867462 11.1914404 61.4811369 11.6257883 61.4811369 12.1403435L61.4811369 12.3404473C61.4811369 12.8677075 61.5859521 13.3068197 61.7955857 13.6577971 62.0052193 14.0087745 62.3577795 14.1842606 62.8532771 14.1842606zM66.921101 10.3537026C67.0989719 10.1059538 67.317337 9.91299854 67.5762027 9.77483096 67.8350684 9.63666337 68.1217221 9.56758062 68.4361725 9.56758062 68.9856665 9.56758062 69.413662 9.73274399 69.7201717 10.0630757 70.0266814 10.3934074 70.179934 10.9016024 70.179934 11.5876759L70.179934 14.8179226 69.241352 14.8179226 69.241352 11.5781471C69.241352 11.1525275 69.1500357 10.8380818 68.9674004 10.6348008 68.784765 10.4315197 68.5124043 10.3298807 68.1503099 10.3298807 67.8898561 10.3298807 67.6540219 10.3910229 67.4428001 10.5133092 67.2315784 10.6355954 67.0576805 10.8015529 66.921101 11.0111864L66.921101 14.8179226 65.982519 14.8179226 65.982519 7.38549657 66.921101 7.38549657 66.921101 10.3537026zM74.7432529 14.8179226C74.7114903 14.6622855 74.6868746 14.5249141 74.6694051 14.4058041 74.6519357 14.2866941 74.6416129 14.1667919 74.6384367 14.0460937 74.463742 14.2938425 74.2358483 14.5010908 73.9547488 14.6678448 73.6736492 14.8345987 73.3711144 14.9179745 73.0471352 14.9179745 72.5103462 14.9179745 72.101408 14.780603 71.8203085 14.505856 71.5392089 14.2311089 71.3986612 13.8523449 71.3986612 13.3695524 71.3986612 12.8772311 71.597969 12.4921146 71.9965904 12.2141913 72.3952118 11.936268 72.935963 11.7973084 73.6188603 11.7973084L74.6384367 11.7973084 74.6384367 11.2875202C74.6384367 10.9857749 74.5463263 10.7467645 74.3621029 10.5704817 74.1778794 10.3941989 73.9174295 10.3060588 73.5807453 10.3060588 73.279 10.3060588 73.0336371 10.3830821 72.8446492 10.5371311 72.6556614 10.69118 72.5611689 10.8761947 72.5611689 11.0921808L71.6654663 11.0921808 71.6559375 11.0635946C71.6368799 10.6887951 71.8139541 10.3457635 72.1871654 10.0344894 72.5603767 9.72321533 73.0423679 9.56758062 73.6331534 9.56758062 74.2175864 9.56758062 74.6876668 9.71606884 75.0434086 10.0130497 75.3991504 10.3100306 75.5770187 10.7380261 75.5770187 11.297049L75.5770187 13.7792887C75.5770187 13.9635121 75.5865473 14.1413804 75.6056049 14.3128988 75.6246625 14.4844172 75.6596009 14.6527567 75.7104212 14.8179226L74.7432529 14.8179226zM73.1853021 14.1318525C73.5251626 14.1318525 73.8316677 14.0445065 74.1048266 13.8698118 74.3779855 13.6951172 74.5558538 13.4950154 74.6384367 13.2695005L74.6384367 12.4309704 73.5855097 12.4309704C73.207534 12.4309704 72.9049991 12.5262569 72.6778961 12.7168329 72.4507931 12.9074089 72.3372432 13.1313323 72.3372432 13.3886099 72.3372432 13.6173011 72.4087082 13.7983455 72.5516401 13.9317487 72.6945721 14.0651519 72.9057907 14.1318525 73.1853021 14.1318525zM79.4256813 10.4918695L78.9444794 10.4632832C78.6967306 10.4632832 78.4878942 10.5220433 78.317964 10.6395651 78.1480337 10.757087 78.0170147 10.9222504 77.924903 11.1350602L77.924903 14.8179226 76.986321 14.8179226 76.986321 9.66286813 77.8248511 9.66286813 77.9153742 10.4156395C78.0614825 10.1488331 78.2417329 9.94079079 78.4561309 9.79150627 78.6705289 9.64222176 78.9174799 9.56758062 79.1969913 9.56758062 79.2668691 9.56758062 79.3335697 9.573139 79.3970951 9.58425593 79.4606204 9.59537287 79.513028 9.60728369 79.5543195 9.61998875L79.4256813 10.4918695zM80.0822123 12.3356829C80.0822123 11.5066774 80.2632567 10.8380833 80.6253511 10.3298807 80.9874455 9.82167811 81.4876999 9.56758062 82.1261294 9.56758062 82.4532849 9.56758062 82.7407326 9.63348716 82.9884814 9.76530221 83.2362302 9.89711726 83.4426844 10.0868963 83.6078503 10.3346451L83.7221953 9.66286813 84.4702023 9.66286813 84.4702023 14.8465088C84.4702023 15.5071722 84.278041 16.0145732 83.8937128 16.3687269 83.5093846 16.7228806 82.9551344 16.8999548 82.2309457 16.8999548 81.9831969 16.8999548 81.7156005 16.8658104 81.4281484 16.7975207 81.1406963 16.729231 80.8873929 16.6363266 80.6682305 16.5188047L80.9064493 15.7898552C81.0747914 15.8851432 81.2780694 15.9621665 81.5162893 16.0209274 81.7545093 16.0796884 81.9895495 16.1090684 82.2214169 16.1090684 82.6787993 16.1090684 83.0115082 16.0050472 83.2195536 15.7970018 83.4275991 15.5889563 83.5316202 15.2721285 83.5316202 14.8465088L83.5316202 14.265255C83.3632781 14.4812411 83.1615882 14.6440223 82.9265445 14.7536035 82.6915008 14.8631847 82.4215222 14.9179745 82.1166007 14.9179745 81.4845237 14.9179745 80.9874455 14.6892867 80.6253511 14.2319044 80.2632567 13.774522 80.0822123 13.1758048 80.0822123 12.4357348L80.0822123 12.3356829zM81.0207943 12.4357348C81.0207943 12.9534662 81.1303738 13.3695508 81.3495362 13.6840012 81.5686986 13.9984516 81.9022015 14.1556744 82.3500551 14.1556744 82.6327428 14.1556744 82.8693711 14.0913559 83.0599471 13.9627172 83.250523 13.8340784 83.4077459 13.6522399 83.5316202 13.4171961L83.5316202 11.0445371C83.4109221 10.8253747 83.2536993 10.6514767 83.0599471 10.5228379 82.8661948 10.3941992 82.6327427 10.3298807 82.3595838 10.3298807 81.9117303 10.3298807 81.5766392 10.5172776 81.3543006 10.8920771 81.1319619 11.2668765 81.0207943 11.7480736 81.0207943 12.3356829L81.0207943 12.4357348zM88.0187092 14.9179745C87.300873 14.9179745 86.7299477 14.678964 86.3059162 14.2009359 85.8818846 13.7229079 85.669872 13.1027512 85.669872 12.3404473L85.669872 12.1308147C85.669872 11.3970972 85.8882371 10.7864692 86.3249737 10.2989123 86.7617103 9.8113554 87.2786399 9.56758062 87.875778 9.56758062 88.5713803 9.56758062 89.0970445 9.77721105 89.4527863 10.1964782 89.8085281 10.6157454 89.9863964 11.1747598 89.9863964 11.8735384L89.9863964 12.4595566 86.6418047 12.4595566 86.6275115 12.4833785C86.6370403 12.9788761 86.762501 13.3862261 87.0038972 13.7054409 87.2452934 14.0246556 87.5835607 14.1842606 88.0187092 14.1842606 88.3363359 14.1842606 88.615049 14.1389995 88.8548572 14.0484759 89.0946653 13.9579523 89.3019135 13.8332858 89.4766082 13.6744724L89.8434651 14.2843125C89.6592417 14.4653597 89.4162609 14.6162301 89.1145156 14.7369282 88.8127703 14.8576263 88.4475052 14.9179745 88.0187092 14.9179745zM87.875778 10.3060588C87.5613276 10.3060588 87.2929371 10.438666 87.0705985 10.7038842 86.8482598 10.9691025 86.7116824 11.3018114 86.6608622 11.7020209L86.6703909 11.7258428 89.0478144 11.7258428 89.0478144 11.601969C89.0478144 11.2335221 88.9493516 10.9254289 88.7524231 10.6776801 88.5554946 10.4299314 88.2632824 10.3060588 87.875778 10.3060588zM93.5253746 10.4918695L93.0441726 10.4632832C92.7964239 10.4632832 92.5875875 10.5220433 92.4176572 10.6395651 92.247727 10.757087 92.116708 10.9222504 92.0245963 11.1350602L92.0245963 14.8179226 91.0860143 14.8179226 91.0860143 9.66286813 91.9245444 9.66286813 92.0150675 10.4156395C92.1611758 10.1488331 92.3414262 9.94079079 92.5558241 9.79150627 92.7702221 9.64222176 93.0171731 9.56758062 93.2966846 9.56758062 93.3665624 9.56758062 93.433263 9.573139 93.4967883 9.58425593 93.5603137 9.59537287 93.6127213 9.60728369 93.6540127 9.61998875L93.5253746 10.4918695zM99.9458472 13.4505468C99.9458472 13.2440895 99.8672358 13.0741618 99.7100106 12.9407586 99.5527854 12.8073554 99.2550149 12.6914234 98.8166902 12.5929592 98.1909657 12.4563797 97.7200913 12.271365 97.4040528 12.0379094 97.0880143 11.8044538 96.9299974 11.4860379 96.9299974 11.0826521 96.9299974 10.6633849 97.1078656 10.3060603 97.4636075 10.0106676 97.8193493 9.71527479 98.2830772 9.56758062 98.8548052 9.56758062 99.4551195 9.56758062 99.9323464 9.72162722 100.2865 10.0297251 100.640654 10.3378229 100.809787 10.7126167 100.793906 11.1541177L100.784377 11.182704 99.8886747 11.182704C99.8886747 10.9571891 99.7941822 10.7547051 99.6051943 10.5752461 99.4162065 10.395787 99.1660793 10.3060588 98.8548052 10.3060588 98.5212972 10.3060588 98.2735521 10.3791119 98.1115626 10.5252201 97.949573 10.6713284 97.8685794 10.8476085 97.8685794 11.0540658 97.8685794 11.2573469 97.9400443 11.4177459 98.0829763 11.5352678 98.2259083 11.6527896 98.5165323 11.7576048 98.9548571 11.8497166 99.6059916 11.9894723 100.090365 12.1792513 100.407992 12.4190594 100.725618 12.6588676 100.884429 12.9804597 100.884429 13.3838455 100.884429 13.8412279 100.699414 14.2112573 100.329379 14.493945 99.9593444 14.7766327 99.4757651 14.9179745 98.878627 14.9179745 98.2211399 14.9179745 97.7034163 14.751223 97.3254406 14.417715 96.9474649 14.0842071 96.7680085 13.6951203 96.7870661 13.250443L96.7965949 13.2218567 97.6922975 13.2218567C97.7081788 13.5553647 97.8320514 13.7991395 98.0639188 13.9531884 98.2957862 14.1072373 98.5673529 14.1842606 98.878627 14.1842606 99.212135 14.1842606 99.473379 14.116766 99.6623668 13.9817747 99.8513547 13.8467833 99.9458472 13.6697092 99.9458472 13.4505468zM105.371518 14.0556225C105.209529 14.3319577 105.001486 14.5447643 104.747385 14.6940488 104.493284 14.8433333 104.199483 14.9179745 103.865975 14.9179745 103.303776 14.9179745 102.865458 14.7385181 102.551008 14.3796 102.236557 14.0206819 102.079335 13.4616675 102.079335 12.7025398L102.079335 9.66286813 103.017917 9.66286813 103.017917 12.7120686C103.017917 13.2615626 103.09891 13.6395326 103.2609 13.84599 103.422889 14.0524473 103.675399 14.1556744 104.018435 14.1556744 104.351943 14.1556744 104.62748 14.0881797 104.845055 13.9531884 105.062629 13.8181971 105.226998 13.6268299 105.338168 13.3790811L105.338168 9.66286813 106.27675 9.66286813 106.27675 14.8179226 105.433455 14.8179226 105.371518 14.0556225zM110.130177 10.4918695L109.648975 10.4632832C109.401226 10.4632832 109.192389 10.5220433 109.022459 10.6395651 108.852529 10.757087 108.72151 10.9222504 108.629398 11.1350602L108.629398 14.8179226 107.690816 14.8179226 107.690816 9.66286813 108.529346 9.66286813 108.619869 10.4156395C108.765978 10.1488331 108.946228 9.94079079 109.160626 9.79150627 109.375024 9.64222176 109.621975 9.56758062 109.901487 9.56758062 109.971364 9.56758062 110.038065 9.573139 110.10159 9.58425593 110.165116 9.59537287 110.217523 9.60728369 110.258815 9.61998875L110.130177 10.4918695z"/>
    <path fill="#FFF" d="M27.835289,28.4259676 C26.5497573,30.210436 25.2199928,31.9839281 23.1204868,32.0211015 C21.0542327,32.0582749 20.391825,30.8593603 18.0340372,30.8593603 C15.6737749,30.8593603 14.9354293,31.9839281 12.9845359,32.0582749 C10.9576736,32.13028 9.4164738,30.130967 8.12034784,28.3545478 C5.47240295,24.7223869 3.45138678,18.0845974 6.16943893,13.6050298 C7.51541173,11.3803788 9.9272376,9.97282493 12.5408171,9.93566619 C14.5313034,9.90089298 16.4116566,11.2094983 17.6274368,11.2094983 C18.8450729,11.2094983 21.1273867,9.63836698 23.526778,9.86881265 C24.5311383,9.90819594 27.3499668,10.2529717 29.160259,12.7674433 C29.0171988,12.8567034 25.7956364,14.6358153 25.8349199,18.342323 C25.8743582,22.7699065 29.9222676,24.241621 29.9692841,24.2616712 C29.9326298,24.3657274 29.3221878,26.3626988 27.835289,28.4259676 Z M19.0201478,5.00502746 C20.131378,3.76898339 22.0089473,2.84961551 23.5584832,2.78784038 C23.7564477,4.50476746 23.0287736,6.22406544 21.954043,7.46296337 C20.8771473,8.69963675 19.1143355,9.66298336 17.3843117,9.5343547 C17.1492289,7.85458636 18.0212005,6.10272509 19.0201478,5.00502746 Z" transform="translate(3.485 3.485)"/>
  </g>
</svg>
