<svg xmlns="http://www.w3.org/2000/svg" width="33" height="35" viewBox="0 0 33 35">
    <path fill="#00BDCC" fill-rule="nonzero" d="M12.164 20.465a1.418 1.418 0 0 1-1.42-1.418v-2.022c0-.785.636-1.42 1.42-1.42h2.022a1.418 1.418 0 0 1 1.419 1.42v2.022c0 .783-.635 1.418-1.419 1.418h-2.022zm.277-3.164v1.468h1.467V17.3h-1.467zm6.117 3.164a1.418 1.418 0 0 1-1.418-1.418v-2.022a1.418 1.418 0 0 1 1.418-1.42h2.022c.784 0 1.42.635 1.42 1.42v2.022a1.418 1.418 0 0 1-1.42 1.418h-2.022zm.278-3.164v1.468h1.468V17.3h-1.468zm6.375 3.164a1.418 1.418 0 0 1-1.42-1.418v-2.022a1.42 1.42 0 0 1 1.42-1.42h2.022a1.418 1.418 0 0 1 1.418 1.42v2.022c0 .783-.635 1.418-1.418 1.418H25.21zm.276-3.164v1.468h1.468V17.3h-1.468zM5.511 20.465a1.418 1.418 0 0 1-1.418-1.418v-2.022a1.418 1.418 0 0 1 1.418-1.42h2.023c.784 0 1.42.635 1.42 1.42v2.022a1.418 1.418 0 0 1-1.42 1.418H5.51zm.279-3.164v1.468h1.467V17.3H5.79zm6.374 10.583a1.42 1.42 0 0 1-1.42-1.42v-2.022a1.418 1.418 0 0 1 1.42-1.419h2.022c.784 0 1.419.635 1.419 1.419v2.022a1.418 1.418 0 0 1-1.419 1.42h-2.022zm.277-3.164v1.467h1.467V24.72h-1.467zm6.117 3.164a1.418 1.418 0 0 1-1.418-1.42v-2.022c0-.784.635-1.419 1.418-1.419h2.022A1.418 1.418 0 0 1 22 24.442v2.022a1.42 1.42 0 0 1-1.42 1.42h-2.022zm.278-3.164v1.467h1.468V24.72h-1.468zM5.511 27.884a1.418 1.418 0 0 1-1.418-1.42v-2.022c0-.784.635-1.419 1.418-1.419h2.023a1.418 1.418 0 0 1 1.42 1.419v2.022a1.42 1.42 0 0 1-1.42 1.42H5.51zm.279-3.164v1.467h1.467V24.72H5.79zm27.2-14.067H33v1.631h-.017v13.081c0 .494-.204.965-.566 1.303l-3.878 3.624-3.768 3.685a1.065 1.065 0 0 1-.746.302H4.044c-2.21 0-4-1.78-4-3.975v-18.02H0v-1.631h.043v-4.21c0-2.011 1.642-3.642 3.666-3.642h4.109V.835c0-.44.36-.799.804-.799.444 0 .804.358.804.8V2.8h6.165V.835a.798.798 0 0 1 .39-.722.808.808 0 0 1 .825 0c.254.151.405.429.391.722v1.966h6.135V.835c0-.44.36-.799.804-.799.444 0 .804.358.804.8V2.8h3.766c1.136 0 2.226.447 3.03 1.245a4.242 4.242 0 0 1 1.254 3.01v3.597zM27.4 29.08l3.106-2.905h-2.685a2.931 2.931 0 0 0-2.936 2.919v2.437l2.49-2.427.014-.012.011-.012zm3.918-4.566V12.284H1.715v18.02a2.333 2.333 0 0 0 2.329 2.314h19.172v-3.525c.004-2.528 2.065-4.575 4.609-4.578h3.493zm0-13.862V7.056a2.606 2.606 0 0 0-2.612-2.594h-3.773v1.606c.61.353.906 1.067.726 1.745a1.566 1.566 0 0 1-1.5 1.159 1.567 1.567 0 0 1-1.523-1.128 1.554 1.554 0 0 1 .689-1.76V4.463H17.19v1.606c.61.353.907 1.067.727 1.745a1.566 1.566 0 0 1-1.5 1.16 1.567 1.567 0 0 1-1.523-1.129 1.554 1.554 0 0 1 .69-1.76V4.463H9.419V6.02a1.555 1.555 0 0 1-.58 2.947 1.568 1.568 0 0 1-1.595-1.024 1.553 1.553 0 0 1 .567-1.8V4.462H3.71a1.99 1.99 0 0 0-1.994 1.981v4.21h29.603z"/>
</svg>
