<svg xmlns="http://www.w3.org/2000/svg" width="44" height="30" viewBox="0 0 44 30">
    <path fill="#00BDCC" fill-rule="nonzero" stroke="#00BDCC" d="M43 8.227a3.008 3.008 0 0 0-.603-1.838l-3.328-4.307A2.85 2.85 0 0 0 36.816 1c-.505 0-1.018.13-1.472.417L32.099 3.46c-.341.22-.926.371-1.491.367-.44.002-.864-.087-1.144-.227l-3.177-1.556c-.513-.25-1.084-.352-1.659-.353-.825.004-1.66.209-2.332.68l-.37.263-1.263-.636c-.615-.305-1.339-.428-2.07-.43-.66.001-1.32.104-1.9.352l-2.163.934c-.353.154-.913.255-1.47.253-.556.002-1.115-.099-1.467-.253l-2.167-.935a3.122 3.122 0 0 0-1.236-.244c-.482 0-.96.097-1.406.28a3.197 3.197 0 0 0-1.187.825L1.653 7.247A2.602 2.602 0 0 0 1 8.975c-.001.73.308 1.462.903 1.975l3.68 3.175-1.746 1.841a2.641 2.641 0 0 0-.72 1.818 2.633 2.633 0 0 0 .81 1.907l.354.34c.333.32.734.524 1.154.633-.21.391-.326.82-.325 1.25a2.637 2.637 0 0 0 .809 1.908l.354.342a2.607 2.607 0 0 0 2.827.517c.115.47.352.917.724 1.274l.355.342a2.605 2.605 0 0 0 3.257.283c.128.416.347.81.68 1.131l.355.342c.505.485 1.16.726 1.806.725.688 0 1.382-.272 1.895-.814l1.542-1.63 2.096 1.963c.502.47 1.145.704 1.781.703a2.602 2.602 0 0 0 1.917-.838l.334-.363c.29-.313.478-.685.587-1.072l.812.758a2.612 2.612 0 0 0 3.7-.138l.332-.362c.385-.416.6-.93.668-1.455.214.056.431.093.65.093.7 0 1.404-.282 1.919-.839l.333-.362a2.639 2.639 0 0 0 .698-1.793c0-.198-.029-.395-.072-.59a2.583 2.583 0 0 0 1.57-.804l.334-.363a2.644 2.644 0 0 0 .697-1.793 2.638 2.638 0 0 0-.833-1.931l-.625-.585 5.646-6.315c.507-.569.741-1.3.742-2.021zM4.912 18.65a1.193 1.193 0 0 1-.367-.867c0-.3.107-.594.326-.826l3.575-3.773a1.18 1.18 0 0 1 .862-.369c.298 0 .59.11.82.329l.354.34s.365.548.366.869c0 .24-.072.474-.211.677l-3.858 4.066a1.193 1.193 0 0 1-.692.223 1.18 1.18 0 0 1-.82-.328l-.355-.34zm3.168 4.8c-.299 0-.59-.109-.82-.328l-.355-.341a1.193 1.193 0 0 1-.366-.868c0-.3.107-.594.325-.825 0 0 4.765-5.017 4.805-5.066.228-.221.521-.336.824-.336.3 0 .591.109.82.328l.356.342c.244.234.365.546.366.867 0 .301-.108.595-.326.826l-4.767 5.033a1.182 1.182 0 0 1-.862.369zm3.906 2.134c-.299 0-.59-.109-.82-.329l-.356-.34a1.19 1.19 0 0 1-.367-.868c0-.269.09-.529.263-.746l3.319-3.503a1.178 1.178 0 0 1 1.615.016l.356.342c.244.234.366.547.367.867a1.2 1.2 0 0 1-.327.826l-3.189 3.366a1.179 1.179 0 0 1-.86.37zm5.153 1.387a1.18 1.18 0 0 1-.862.369c-.299 0-.59-.11-.82-.329l-.355-.341a1.198 1.198 0 0 1-.367-.868c.001-.3.109-.595.327-.825l2.012-2.126c.233-.245.544-.368.863-.368.298 0 .59.108.82.328l.356.342c.244.233.365.546.366.867a1.196 1.196 0 0 1-.327.826l-2.013 2.125zm19.189-7.077l-.334.362c-.233.252-.549.38-.872.38-.294 0-.581-.105-.81-.318l-5.621-5.26-.973 1.054 6.018 5.638a1.204 1.204 0 0 1 .062 1.694l-.333.362a1.183 1.183 0 0 1-.872.38 1.178 1.178 0 0 1-.808-.318L26.16 18.61l-.971 1.053 4.99 4.668c.241.233.364.544.364.862 0 .296-.103.585-.315.814l-.333.362c-.232.252-.55.38-.874.38a1.18 1.18 0 0 1-.809-.317l-4.98-4.651-.002-.001-.97 1.055.02.018 2.495 2.33a1.193 1.193 0 0 1 .021 1.639l-.333.362a1.18 1.18 0 0 1-.87.38 1.176 1.176 0 0 1-.809-.318l-2.172-2.034c.19-.376.295-.782.295-1.19a2.637 2.637 0 0 0-.81-1.908l-.355-.342a2.6 2.6 0 0 0-1.805-.725c-.05 0-.1.012-.15.015l.003-.037c.001-.693-.809-1.908-.809-1.908l-.355-.341a2.597 2.597 0 0 0-1.317-.679 2.65 2.65 0 0 0 .155-.872 2.64 2.64 0 0 0-.81-1.907l-.354-.342a2.605 2.605 0 0 0-1.806-.726c-.075 0-.15.015-.225.022a2.637 2.637 0 0 0-.8-1.825l-.355-.34a2.604 2.604 0 0 0-1.805-.727c-.689 0-1.382.272-1.895.814l-.844.89L2.833 9.86a1.162 1.162 0 0 1-.404-.884c.001-.277.094-.548.293-.773l3.944-4.467c.156-.178.388-.339.659-.45.271-.112.579-.173.867-.173.25 0 .486.046.674.128l2.165.935c.61.26 1.319.367 2.031.37.713-.003 1.42-.11 2.031-.37l2.165-.934c.333-.147.837-.239 1.337-.237.554-.003 1.108.113 1.43.279l.578.291-2.207 1.57a2.594 2.594 0 0 0-.582 3.66l.29.396a2.838 2.838 0 0 0 2.28 1.129c.488 0 .984-.125 1.427-.393l1.32-.802c.269-.167.675-.272 1.096-.27.494-.003.992.145 1.29.367l3.653 2.649a36.55 36.55 0 0 1 2.87 2.368l4.227 3.953c.25.235.376.553.377.878 0 .296-.105.585-.316.815zm4.87-10.608l-5.63 6.298-2.557-2.39a37.704 37.704 0 0 0-3.007-2.482l-3.651-2.648c-.62-.444-1.377-.636-2.127-.638-.637.001-1.28.142-1.834.476l-1.32.802a1.327 1.327 0 0 1-.688.186c-.443.002-.886-.207-1.133-.548l-.291-.396a1.156 1.156 0 0 1 .258-1.63l3.903-2.773c.337-.247.938-.42 1.508-.416.396-.002.775.079 1.034.208l3.177 1.557c.542.263 1.153.37 1.769.372.79-.004 1.589-.178 2.247-.587l3.246-2.042c.207-.13.456-.198.715-.198.438-.001.877.2 1.126.527l3.327 4.307c.192.247.303.595.303.955.001.404-.14.8-.375 1.06z"/>
</svg>
