<svg xmlns="http://www.w3.org/2000/svg" width="21" height="31" viewBox="0 0 21 31">
    <path fill="#00BDCC" fill-rule="nonzero" d="M7.582 30.53c-.266 0-.526-.081-.746-.233a1.481 1.481 0 0 1-.594-1.519l2.738-13.02-6.65.251a1.33 1.33 0 0 1-.965-.363 1.481 1.481 0 0 1-.46-1.029c-.005-.215.034-.43.116-.629L6.264 1.507c.196-.488.654-.82 1.178-.858l6.587-.406a1.33 1.33 0 0 1 .973.342 1.502 1.502 0 0 1 .387 1.63L13.58 6.978l5.905-.2c.357-.01.703.122.963.368.492.474.598 1.222.259 1.816L8.765 29.83c-.237.432-.69.7-1.183.7zm2.205-16.098a.649.649 0 0 1 .636.778l-2.91 13.835a.179.179 0 0 0 .052.18c.016.01.021.008.025.007s.028-.009.05-.045l11.945-20.87a.197.197 0 0 0 .023-.104.176.176 0 0 0-.047-.122.054.054 0 0 0-.03-.015l-6.876.232a.649.649 0 0 1-.628-.878l2.152-5.674a.202.202 0 0 0 .013-.084.17.17 0 0 0-.049-.118.05.05 0 0 0-.03-.015l-6.588.406c-.013 0-.043.02-.06.065l-5.25 12.48a.211.211 0 0 0-.015.087c0 .045.018.088.048.12a.056.056 0 0 0 .03.016l7.48-.281h.03z"/>
</svg>
