<svg xmlns="http://www.w3.org/2000/svg" width="124" height="33" viewBox="0 0 124 33">
    <g fill="none" fill-rule="evenodd">
        <path fill="#FFF" d="M18.078 25.502h5.957V0h-5.957v25.502zM0 0v25.502h5.957V0H0z"/>
        <path fill="#047083" d="M18.077 25.502V17.01l-6.06-4.107-6.06 4.104v8.495H0v-9.91c0-.895.406-1.743 1.104-2.309l9.027-6.519a2.998 2.998 0 0 1 3.765-.002l9.045 6.52a2.956 2.956 0 0 1 1.094 2.31v9.91h-5.958z"/>
        <path fill="#FFF" d="M46.432 6.876l4.552.704c1.064-.704 2.496-.927 3.67-.927 2.204 0 4.076.63 5.434 1.632 1.432-1.002 3.231-1.632 5.434-1.632 5.176 0 8.222 2.968 8.222 8.274v10.575h-5.579v-10.5c0-1.484-1.211-2.672-2.643-2.672-1.358 0-2.496 1.039-2.607 2.486v10.686h-5.617v-10.5c0-1.484-1.175-2.672-2.643-2.672-1.359 0-2.497 1.039-2.607 2.486v10.686h-5.616V6.876zM76.476 6.876l4.552.704c1.065-.704 2.497-.927 3.671-.927 2.203 0 4.075.63 5.434 1.632 1.432-1.002 3.23-1.632 5.432-1.632 5.177 0 8.224 2.968 8.224 8.274v10.575h-5.58v-10.5c0-1.484-1.212-2.672-2.644-2.672-1.357 0-2.496 1.039-2.606 2.486v10.686h-5.617v-10.5c0-1.484-1.174-2.672-2.643-2.672-1.358 0-2.496 1.039-2.606 2.486v10.686h-5.617V6.876zM118.075 6.653l-3.39 10.195-4.432-10.195h-5.918l7.828 17.78-.339 1.017-2.508 7.26h5.962L124 6.652zM35.233 20.75c-2.396 0-4.34-1.968-4.34-4.395 0-2.428 1.944-4.396 4.34-4.396 2.397 0 4.34 1.968 4.34 4.396 0 2.427-1.943 4.395-4.34 4.395m.018-14.097c-5.345 0-9.577 4.324-9.577 9.664 0 5.416 4.232 9.74 9.577 9.74 5.273 0 9.542-4.324 9.542-9.74 0-5.34-4.27-9.664-9.542-9.664"/>
    </g>
</svg>
