<svg xmlns="http://www.w3.org/2000/svg" width="82" height="51" viewBox="0 0 82 51">
    <g fill="none" fill-rule="nonzero">
        <path fill="#000" d="M7.863 48.654l4.916-4.938-1.644-1.657-3.086 3.087-5.611-5.615L.592 41.38zM9.892 35.039l1.237 1.237 2.555-2.564 1.481 1.486-2.554 2.56 1.573 1.589 3.168-3.17 1.474 1.484-5.002 5.01-7.262-7.275 5.007-5.017 1.489 1.495zM26.054 30.42l-4.942-1.402v-.012c.576-1.073.324-2.554-.681-3.55-1.059-1.074-2.91-1.043-4.13.188l-3.686 3.692 7.265 7.265 1.844-1.847-5.87-5.886 1.179-1.189c.532-.53 1.368-.547 1.895-.026.495.501.488 1.348-.049 1.881l-1.077 1.086 6.28 1.777 1.972-1.978zM24.176 20.321c-1.15 1.156-.76 2.562.638 3.963 1.394 1.411 2.808 1.797 3.956.637 1.145-1.153.768-2.552-.64-3.96-1.407-1.404-2.809-1.79-3.954-.64m-1.44-1.442c2.259-2.272 5.27-2.053 7.392.077 2.131 2.132 2.349 5.133.08 7.41-2.272 2.277-5.269 2.055-7.403-.072-2.126-2.135-2.346-5.138-.07-7.415M32.318 15.057l-1.353-4.106 2.146-2.146 1.807 7.028 2.845 2.856-1.837 1.846-2.844-2.84-6.733-2.122 2.032-2.031 3.893 1.505zM65.915 40.131l7.26-7.28-1.941-1.934-7.252 7.27zM38.13 12.289l5.654-2.697-4.173 4.18 1.677 1.682 7.252-7.27-2.305-2.316-5.46 2.668h.006l2.718-5.403-2.368-2.38-7.25 7.271 1.663 1.686 4.176-4.184-2.697 5.653zM50.717 13.323l-1.245 1.245 2.789 2.783-1.477 1.481-2.791-2.79-1.58 1.587 3.395 3.396-1.472 1.48L43.1 17.27l7.258-7.28 5.234 5.242-1.484 1.483zM57.73 31.927l4.912 4.937 1.663-1.654-3.084-3.085 5.607-5.625-1.834-1.848zM77.282 36.965l-2.34 7.712v.007l5.025-5.032 1.716 1.735-7.243 7.272-2.286-2.282 1.986-7.945-4.954 4.964-1.672-1.674 7.255-7.275zM56.356 30.556l1.397-4.952v.005c1.078.577 2.542.318 3.547-.685 1.07-1.076 1.037-2.919-.193-4.144l-3.9-3.912-7.253 7.272 1.834 1.848 5.875-5.89 1.412 1.418c.54.535.553 1.375.036 1.888-.508.514-1.349.49-1.878-.033l-1.312-1.315-1.547 6.515 1.982 1.985z"/>
        <path fill="#3ABA29" d="M9.238 50.04h63.836L41.157 18.068z"/>
    </g>
</svg>
