<svg xmlns="http://www.w3.org/2000/svg" width="29" height="37" viewBox="0 0 29 37">
    <path fill="#00BDCC" fill-rule="nonzero" d="M14.5 19c2.078-.001 3.887 1.477 4.374 3.576.488 2.098-.473 4.27-2.323 5.254v5.327a.86.86 0 0 1-.238.596.797.797 0 0 1-.574.247H13.26c-.448 0-.812-.378-.812-.843V27.83c-1.85-.984-2.81-3.156-2.323-5.254.487-2.099 2.296-3.577 4.374-3.576zm.964 7.484v-.007c1.318-.487 2.106-1.889 1.868-3.32-.238-1.43-1.434-2.476-2.832-2.476s-2.594 1.045-2.832 2.476.55 2.833 1.868 3.32c.34.126.558.47.537.843v4.994h.854v-5.007a.843.843 0 0 1 .537-.823zm12.72-11.337a.81.81 0 0 1 .58.245c.153.157.238.37.236.59v20.19a.822.822 0 0 1-.815.828H.815A.822.822 0 0 1 0 36.173V15.976c0-.457.365-.827.815-.827H3.94V10.06C3.946 4.51 8.377.01 13.848 0h1.304c5.47.01 9.902 4.51 9.908 10.06v5.087h3.125zM5.572 10.06v5.006h2.303v-4.82c.003-3.501 2.8-6.338 6.25-6.342h.753c3.45.004 6.246 2.84 6.25 6.341v4.823h2.302V10.06c-.005-4.638-3.706-8.397-8.277-8.405h-1.304c-4.57.008-8.272 3.767-8.277 8.405zm13.924.187v-.002c-.002-2.587-2.069-4.683-4.618-4.686h-.754c-2.55.003-4.616 2.1-4.618 4.686v4.823h9.99v-4.82zm7.874 25.1V16.812H1.631v18.535h25.738z"/>
</svg>
