<svg preserveAspectRatio="none" viewBox="0 0 289 597" xmlns="http://www.w3.org/2000/svg" xmlns:xlink="http://www.w3.org/1999/xlink"><defs><path id="a" d="m237.92908 0c33.070514 0 50.722908 17.6682952 50.722908 50.7886785v494.9761995c0 33.112834-17.65054 50.788679-50.722908 50.788679h-187.2061718c-33.0723679 0-50.7229082-17.675845-50.7229082-50.788679v-494.9761995c0-33.1203833 17.6523938-50.7886785 50.7229082-50.7886785z"/><filter id="b" height="101.2%" width="102.4%" x="-1.2%" y="-.6%"><feMorphology in="SourceAlpha" radius="3" result="shadowSpreadInner1"/><feGaussianBlur in="shadowSpreadInner1" result="shadowBlurInner1" stdDeviation="2"/><feOffset in="shadowBlurInner1" result="shadowOffsetInner1"/><feComposite in="shadowOffsetInner1" in2="SourceAlpha" k2="-1" k3="1" operator="arithmetic" result="shadowInnerInner1"/><feColorMatrix in="shadowInnerInner1" result="shadowMatrixInner1" values="0 0 0 0 0   0 0 0 0 0   0 0 0 0 0  0 0 0 0.15 0"/><feMorphology in="SourceAlpha" radius="1" result="shadowSpreadInner2"/><feOffset in="shadowSpreadInner2" result="shadowOffsetInner2"/><feComposite in="shadowOffsetInner2" in2="SourceAlpha" k2="-1" k3="1" operator="arithmetic" result="shadowInnerInner2"/><feColorMatrix in="shadowInnerInner2" result="shadowMatrixInner2" values="0 0 0 0 0   0 0 0 0 0   0 0 0 0 0  0 0 0 0.05 0"/><feMerge><feMergeNode in="shadowMatrixInner1"/><feMergeNode in="shadowMatrixInner2"/></feMerge></filter><path id="c" d="m166.971993 557.957016c0 12.714975-10.290286 23.022498-22.983999 23.022498s-22.983999-10.307523-22.983999-23.022498c0-12.714976 10.290286-23.022499 22.983999-23.022499s22.983999 10.307523 22.983999 23.022499zm-43.263998 0c0 11.219095 9.079664 20.313969 20.279999 20.313969s20.279999-9.094874 20.279999-20.313969c0-11.219096-9.079664-20.31397-20.279999-20.31397s-20.279999 9.094874-20.279999 20.31397z"/><filter id="d" height="100%" width="100%" x="0%" y="0%"><feOffset in="SourceAlpha" result="shadowOffsetOuter1"/><feColorMatrix in="shadowOffsetOuter1" values="0 0 0 0 1   0 0 0 0 1   0 0 0 0 1  0 0 0 0.1 0"/></filter><filter id="e" height="102.2%" width="102.2%" x="-1.1%" y="-1.1%"></filter><feGaussianBlur in="SourceAlpha" result="shadowBlurInner1" stdDeviation=".5"/><feOffset in="shadowBlurInner1" result="shadowOffsetInner1"/><feComposite in="shadowOffsetInner1" in2="SourceAlpha" k2="-1" k3="1" operator="arithmetic" result="shadowInnerInner1"/></defs><g fill="none" fill-rule="evenodd" transform="translate(.028)"><use fill="#f9fafb" xlink:href="#a"/><use fill="#000" filter="url(#b)" xlink:href="#a"/><g fill-rule="nonzero"><use fill="#000" filter="url(#d)" xlink:href="#c"/><use fill="#e6e7e9" xlink:href="#c"/><use fill="#000" filter="url(#e)" xlink:href="#c"/></g><path d="m17.576 72.453h253.5v451.647h-253.5z" fill="url(#f)"/></g></svg>