<svg xmlns="http://www.w3.org/2000/svg" xmlns:xlink="http://www.w3.org/1999/xlink" width="380" height="256" viewBox="0 0 380 256">
    <defs>
        <path id="a" d="M100.41 106.04c11.4 3.858 23.551 3.439 35.087-.233 4.211 10.91 14.922 19.02 26.571 20.116 11.65 1.097 22.824-4.03 29-13.963 7.656 9.134 20.175 13.937 31.98 12.268 11.805-1.67 23.737-8.751 28.556-19.65a64.107 64.107 0 0 1-5.164 15.127l-.113-.007c-8.011 7.862-18.988 12.717-31.104 12.717a44.24 44.24 0 0 1-18.384-3.984c-7.772 6.68-17.875 10.726-28.929 10.726-15.23 0-28.664-7.667-36.663-19.345-12.186-.202-23.126-5.466-30.838-13.773"/>
        <path id="b" d="M8.967 2.812C8.857 1.567 6.372.91 5.939.653 5.506.398 5.22 0 5.22 0l-.837.37s-.26-.143-.72-.37C3.315.681.335 1.758.114 2.358-.232 3.296.316 5 .316 5s-.14-.855.366-1.537a2.262 2.262 0 0 0-.059.42c0 .263.3-.804 1.293-1.16l.044-.01.046-.008c-.063.053-.222.197-.251.315-.033.135.047-.237 1.578-.473 1.103-.056 1.18.209 1.18.209.061-.187.693-.21 1.45-.162 1.26.235 1.328.552 1.297.426-.03-.132-.228-.297-.268-.33l.017.002c1.067.32 1.383 1.462 1.383 1.19 0-.16-.053-.408-.097-.589.46.667.513 1.707.513 1.707s.288-.71.159-2.188"/>
    </defs>
    <g fill="none" fill-rule="evenodd" transform="translate(35 14)">
        <path fill="#006E80" d="M282.956 215.29c0 6.99-59.76 12.658-133.478 12.658C75.76 227.948 16 222.28 16 215.29c0-6.99 59.76-12.657 133.478-12.657 73.718 0 133.478 5.667 133.478 12.657" opacity=".155"/>
        <g transform="translate(9 48)">
            <path fill="#ECECEC" d="M194.682.486c31.566 0 57.413 24.461 59.606 55.451 14.316 3.378 24.973 16.222 24.973 31.561 0 17.915-14.531 32.437-32.456 32.437a32.82 32.82 0 0 1-2.782-.126c-7.643 7.5-18.115 12.133-29.674 12.133a42.208 42.208 0 0 1-17.54-3.802c-7.415 6.373-17.053 10.233-27.6 10.233-14.53 0-27.346-7.314-34.978-18.455-12.696-.21-23.987-6.17-31.383-15.393a27.175 27.175 0 0 1-9.018 1.535c-15.026 0-27.208-12.175-27.208-27.193S78.804 51.675 93.83 51.675c3.162 0 6.195.544 9.018 1.535 7.53-9.39 19.096-15.41 32.074-15.41 1.44 0 2.863.075 4.265.22C148.001 16.022 169.525.485 194.682.485M41.549 63.133c9.145 0 16.56 7.41 16.56 16.55s-7.415 16.55-16.56 16.55c-9.146 0-16.56-7.41-16.56-16.55s7.414-16.55 16.56-16.55M3.501 73.169a9.209 9.209 0 0 0 0 13.029 9.222 9.222 0 0 0 13.037 0 9.209 9.209 0 0 0 0-13.03 9.222 9.222 0 0 0-13.037 0"/>
            <path fill="#F4F3F3" d="M165.57 8.053A59.49 59.49 0 0 1 194.682.486c31.566 0 57.413 24.461 59.606 55.451 8.524 2.012 15.75 7.38 20.203 14.633-7-7.168-17.827-10.502-27.627-8.266.42-21.554-13.06-42.265-32.507-51.592-15.064-7.225-32.842-7.768-48.787-2.66M71.353 63.545c4.9-7.166 13.138-11.87 22.477-11.87 3.162 0 6.195.544 9.018 1.535 7.53-9.39 19.096-15.41 32.074-15.41 1.01 0 2.008.05 3 .121 9.14 3.703 17.091 10.403 21.83 19.063-5.902-8.144-16.762-10.02-26.762-8.897-10 1.123-19.172 6.101-27.362 11.945-1.934-3.603-5.957-4.361-10.032-4.724-8.755-.78-17.691 2.418-24.243 8.237"/>
            <use fill="#D8D5D1" transform="rotate(1 176.007 121.867)" xlink:href="#a"/>
        </g>
        <g transform="translate(0 1)">
            <path fill="#FBCF9F" d="M44.648 24.444c-1.58-2.144-1.642-4.752-.14-5.826 1.502-1.073 4-.206 5.58 1.938s1.643 4.752.141 5.826c-1.502 1.073-4 .206-5.58-1.938"/>
            <path fill="#F7BC97" d="M69.061 19.043c1.548-2.161 4.047-3.073 5.583-2.036 1.535 1.037 1.526 3.63-.021 5.792-1.547 2.161-4.047 3.073-5.583 2.036-1.535-1.037-1.526-3.63.021-5.792"/>
            <path fill="#FBCF9F" d="M51.316 43.421H60v-15h-8.684z"/>
            <path fill="#F7BC97" d="M59.21 43.421h8.685v-15H59.21z"/>
            <path fill="#FDDBA3" d="M45 16.088c0 8.013 6.716 21.017 15 21.017V1.58c-8.284 0-15 6.496-15 14.509"/>
            <path fill="#FBCF9F" d="M59.21 1.579v35.526c8.285 0 15-13.004 15-21.017s-6.715-14.51-15-14.51"/>
            <path fill="#F2F3F3" d="M51.908 43.022l-10.855.935 1.992 29.683-1.083 32.912L60 108.947l-.611-67.105z"/>
            <path fill="#FEFEFE" d="M66.76 43.022l12.187.935-2.01 29.683 1.093 32.912-18.203 2.395-.616-67.105z"/>
            <path fill="#8E775C" d="M48.849 14.21s.708 4.134-1.676 5.814v5.24s-3.71-5.258-2.827-11.053h4.503z"/>
            <path fill="#78644D" d="M70.329 15.79s-.472 3.838 1.117 5.398v4.865s2.473-4.882 1.884-10.264H70.33z"/>
            <path fill="#8E775C" d="M50.606 2.755C45.165 6.278 43.4 4.3 43.4 4.3s.424 3.25 2.47 3.25c0 0-2.752.353-4.658-.071 0 0 .776 2.755 3.317 3.179 0 0-4.164 1.907-6.634 2.119 0 0 2.188 1.907 4.376 2.402 0 0 12.5.737 16.092-7.065 0 0-2.188 6.994-4.023 9.254 0 0 2.319-.368 4.87-2.03V0c-3.097.046-6.064 1.11-8.604 2.755"/>
            <path fill="#78644D" d="M69.749 4.391C66.359 1.2 62.701-.049 59.211.001V15c2.172-1.402 4.517-3.745 5.71-7.616 0 0 .07 6.354 1.324 7.943l1.532-4.075s1.953 6.975 6.026 6.906c0 0 2.306-7.778-4.054-13.766"/>
            <path fill="#FEFEFE" d="M50.584 35.747L60 41.28l-5.803 8.458-7.08-8.458z"/>
            <path fill="#EDEBE0" d="M68.752 35.98l-8.932 5.28 5.057 8.477 8.852-8.478z"/>
            <path fill="#3C3222" d="M52.105 21.71a1.184 1.184 0 1 1 2.369 0 1.184 1.184 0 0 1-2.369 0M63.158 21.71a1.184 1.184 0 1 1 2.368 0 1.184 1.184 0 0 1-2.368 0"/>
            <path fill="#63533F" d="M56.047 16.627a.938.938 0 0 1-.826 1.035l-4.45.49a.934.934 0 0 1-1.029-.831.938.938 0 0 1 .826-1.036l4.45-.49a.934.934 0 0 1 1.03.832M69.442 16.52c.085.622-.257 1.185-.765 1.259l-4.413.64c-.507.073-.988-.37-1.074-.992-.085-.621.257-1.185.765-1.258l4.412-.64c.508-.074.99.37 1.075.991"/>
            <path fill="#032526" d="M73.403 20.526c1.107.021 1.476.566 1.107 1.634s-.995 1.436-1.878 1.104l.771-2.738zM48.051 39.958l11.812 34.92L71.4 38.674l8.86 2.856 21.406-1.572 17.717 44.14-39.123 17.398-2.805 13.336H42.428l-2.265-13.336L.342 84.098 18.25 40.744l20.483.786 9.318-1.572zM33.266 67.105l-10.371 13.51 13.873 7.452-3.502-20.962zm53.13 0l-3.501 20.962 13.873-7.451-10.372-13.51z"/>
            <path fill="#4C5757" d="M38.98 41.379L36.242 52.02l7.494 3.507-.935 10.009 16.934 10.793L77.408 61.09l-3.546-7.276 7.329-3.097-1.483-9.338-8.155-2.743-11.82 35.927-11.791-34.556z"/>
            <circle cx="63.158" cy="86.842" r="1.579" fill="#4C5757"/>
            <circle cx="63.158" cy="94.737" r="1.579" fill="#4C5757"/>
            <circle cx="63.158" cy="102.632" r="1.579" fill="#4C5757"/>
            <path fill="#032526" d="M42.662 114.406l4.654 88.58h6.487l4.764-81.002 7.47 81.001h6.202l5.13-88.58z"/>
            <path fill="#032526" d="M48.582 202.895l-2.62 1.607c-6.144 3.692-8.398 6.258-6.762 7.697 1.636 1.44 3.89 1.44 6.762 0 3.551-1.197 5.327-2.574 5.327-4.132 0-1.557.426-3.282 1.277-5.172h-3.984zM71.089 202.895l2.62 1.607c6.144 3.692 8.397 6.258 6.762 7.697-1.636 1.44-3.89 1.44-6.762 0-3.551-1.197-5.327-2.574-5.327-4.132 0-1.557-.426-3.282-1.277-5.172h3.984zM59.755 41.377l-2.75 4.052 1.573 2.127-1.176 19.877 2.353 7.554 3.316-10.145-2.835-17.286 1.757-3.148z"/>
            <path fill="#4C5757" d="M59.789 41.452v33.634l-2.403-7.64 1.202-19.75L56.9 45.58zM77.441 114.946H42.414l.575 6.3 34.452-4.754z"/>
            <path fill="#4C5757" d="M59.781 76.54v38.537l-.78-.608z"/>
        </g>
        <path fill="#0C0C0C" d="M71.032 19.154v3.139c0 .68-.245 1.307-.651 1.795a2.81 2.81 0 0 1-2.162 1.018h-3.937 3.985a2.821 2.821 0 0 0 2.813-2.813v-3.165l-.048.026z"/>
        <path fill="#292929" d="M48.086 19.128v3.165c0 .68.245 1.307.651 1.795l8.96-4.96h-9.611z" opacity=".93"/>
        <path fill="#0C0C0C" d="M50.899 25.106h3.985a2.821 2.821 0 0 0 2.813-2.813v-3.165l-8.96 4.96a2.81 2.81 0 0 0 2.162 1.018" opacity=".93"/>
        <path fill="#292929" d="M62.12 24.088l8.912-4.934v-.026h-9.611v3.165a2.821 2.821 0 0 0 2.813 2.813h.047a2.81 2.81 0 0 1-2.16-1.018" opacity=".898"/>
        <path fill="#0C0C0C" d="M70.38 24.088a2.798 2.798 0 0 0 .652-1.795v-3.139l-8.912 4.934a2.81 2.81 0 0 0 2.161 1.018h3.938a2.81 2.81 0 0 0 2.162-1.018" opacity=".898"/>
        <path fill="#0C0C0C" d="M57.697 22.293a2.821 2.821 0 0 1-2.813 2.813H50.9a2.821 2.821 0 0 1-2.813-2.813v-3.165h9.611v3.165zm0-3.924H46.818a.239.239 0 0 0-.239.238c0 .627.623 1.63.747 1.824v1.862c0 .951.373 1.847 1.05 2.523a3.547 3.547 0 0 0 2.523 1.05h3.985c.952 0 1.848-.373 2.524-1.05a3.547 3.547 0 0 0 1.049-2.523v-3.165a.76.76 0 0 0-.76-.76zM61.42 19.128h9.612v3.165a2.821 2.821 0 0 1-2.813 2.813h-3.985a2.821 2.821 0 0 1-2.813-2.813v-3.165zm-.759 0v3.165c0 .951.373 1.847 1.05 2.524a3.548 3.548 0 0 0 2.523 1.048h3.985c.951 0 1.848-.372 2.524-1.048a3.547 3.547 0 0 0 1.049-2.524v-1.862c.124-.194.747-1.197.747-1.824a.239.239 0 0 0-.239-.239H61.421a.76.76 0 0 0-.76.76z"/>
        <path fill="#0C0C0C" d="M57.058 18.368h5.385s-1.525.481-1.57 1.034c-.044.553-.212 1.857-.212 1.857s0-1.213-1.047-1.213c-1.172 0-1.157 1.213-1.157 1.213s-.236-1.986-.325-2.131c-.088-.146-1.074-.76-1.074-.76"/>
        <path fill="#FFA7BD" stroke="#FFA7BD" stroke-linecap="round" stroke-linejoin="round" d="M57.237 31.222h4.737"/>
        <path stroke="#4C5757" stroke-linecap="round" d="M73.969 23.105c1.585 2.072 1.81 3.335.674 3.79-1.4.38-1.574-1.145-1.007-1.622.54-.466 1.397-1.598 3.036.703 1.64 2.301-.167 3.27-.895 2.922-.587-.18-1.134-1.159.402-1.905 1.224-.654 2.217.297 2.978 2.853-.27.822-.686 1.289-1.247 1.4-.842.168-.928-.647-.739-1.4.19-.754 1.968-.955 2.548-.184.58.771 1.382 2.27.502 3.449-.881 1.18-2.692.804-2.034-.747.658-1.55 3.018-.031 3.018 1.22 0 1.253.723 2.999-1.486 2.999-2.068 0-.203-2.954.745-1.662 1.31 1.91.077 5.051-1.126 5.051-1.202 0-2.167-1.884-.181-2.08 1.985-.194.442 3.7.181 4.438"/>
        <g>
            <g transform="translate(195)">
                <path fill="#AB8B68" d="M44.648 25.444c-1.58-2.144-1.642-4.752-.14-5.826 1.502-1.073 4-.206 5.58 1.938s1.643 4.752.141 5.826c-1.502 1.073-4 .206-5.58-1.938"/>
                <path fill="#9A755F" d="M69.061 20.043c1.548-2.161 4.047-3.073 5.583-2.036 1.535 1.037 1.526 3.63-.021 5.792-1.547 2.161-4.047 3.073-5.583 2.036-1.535-1.037-1.526-3.63.021-5.792"/>
                <path fill="#8E7C69" d="M51.316 44.421H60v-15h-8.684z"/>
                <path fill="#705240" d="M59.21 44.421h8.685v-15H59.21z"/>
                <path fill="#726043" d="M45 17.088c0 8.013 6.716 21.017 15 21.017V2.58c-8.284 0-15 6.496-15 14.509"/>
                <path fill="#5A452D" d="M59.21 2.579v35.526c8.285 0 15-13.004 15-21.017s-6.715-14.51-15-14.51"/>
                <path fill="#F2F3F3" d="M51.908 44.022l-10.855.935 1.992 29.683-1.083 32.912L60 109.947l-.611-67.105z"/>
                <path fill="#FEFEFE" d="M66.76 44.022l12.187.935-2.01 29.683 1.093 32.912-18.203 2.395-.616-67.105z"/>
                <path fill="#3A3126" d="M48.849 15.21s.708 4.134-1.676 5.814v5.24s-3.71-5.258-2.827-11.053h4.503zM70.329 16.79s-.472 3.838 1.117 5.398v4.865s2.473-4.882 1.884-10.264H70.33z"/>
                <path fill="#2D2B29" d="M50.726 3.212c-3.205 0-3.205 2.955-2.173 2.955 1.031 0-4.69 0-2.683 2.382 0 0-3.6 1.068-1.34 3.109 0 0-2.189 4.186 0 4.68 4.023-.676 5.406-.676 8.999-8.477 0 0 5.23 1.536 3.394 3.797-1.167 0-.264 1.66 2.288 0V1c-3.098.046-3.954-.713-6.494.932l-1.991 1.28z"/>
                <path fill="#000" d="M59.21 1.002V12.25c2.173-1.402 4.518.003 5.712-3.868 0 0 .535 3.61 1.789 5.198l1.066-1.33s1.953 6.975 6.026 6.906c0 0 2.306-7.778-4.054-13.766-3.39-3.192-7.048-4.44-10.538-4.39z"/>
                <path fill="#FEFEFE" d="M50.584 36.747L60 42.28l-5.803 8.458-7.08-8.458z"/>
                <path fill="#EDEBE0" d="M68.752 36.98l-8.932 5.28 5.057 8.477 8.852-8.478z"/>
                <path fill="#3C3222" d="M52.105 22.71a1.184 1.184 0 1 1 2.369 0 1.184 1.184 0 0 1-2.369 0M63.158 22.71a1.184 1.184 0 1 1 2.368 0 1.184 1.184 0 0 1-2.368 0"/>
                <path fill="#18140F" d="M56.047 17.627a.938.938 0 0 1-.826 1.035l-4.45.49a.934.934 0 0 1-1.029-.831.938.938 0 0 1 .826-1.036l4.45-.49a.934.934 0 0 1 1.03.832"/>
                <path fill="#1D1811" d="M69.442 17.52c.085.622-.257 1.185-.765 1.259l-4.413.64c-.507.073-.988-.37-1.074-.992-.085-.621.257-1.185.765-1.258l4.412-.64c.508-.074.99.37 1.075.991"/>
                <path fill="#032526" d="M73.403 21.526c1.107.021 1.476.566 1.107 1.634s-.995 1.436-1.878 1.104l.771-2.738zM48.051 40.958l11.812 34.92L71.4 39.674l8.86 2.856h3.566l-.84-3.31 10.567-1.218 1.666 4.528h4.188c10.352 26.79 15.528 39.818 15.528 39.086l-15.528 3.482-12.554-16.993-6.593 34.39-2.805 13.337H42.428l-2.265-13.336L.342 85.098 18.25 41.744l20.483.786 9.318-1.572zM33.266 68.105l-10.371 13.51 13.873 7.452-3.502-20.962z"/>
                <path fill="#4C5757" d="M38.98 42.379L36.242 53.02l7.494 3.507-.935 10.009 16.934 10.793L77.408 62.09l-3.546-7.276 7.329-3.097-1.483-9.338-8.155-2.743-11.82 35.927-11.791-34.556z"/>
                <circle cx="63.158" cy="87.842" r="1.579" fill="#4C5757"/>
                <circle cx="63.158" cy="95.737" r="1.579" fill="#4C5757"/>
                <circle cx="63.158" cy="103.632" r="1.579" fill="#4C5757"/>
                <path fill="#032526" d="M42.662 115.406l4.654 88.58h6.487l4.764-81.002 7.47 81.001h6.202l5.13-88.58z"/>
                <path fill="#032526" d="M48.582 203.895l-2.62 1.607c-6.144 3.692-8.398 6.258-6.762 7.697 1.636 1.44 3.89 1.44 6.762 0 3.551-1.197 5.327-2.574 5.327-4.132 0-1.557.426-3.282 1.277-5.172h-3.984zM71.089 203.895l2.62 1.607c6.144 3.692 8.397 6.258 6.762 7.697-1.636 1.44-3.89 1.44-6.762 0-3.551-1.197-5.327-2.574-5.327-4.132 0-1.557-.426-3.282-1.277-5.172h3.984zM59.755 42.377l-2.75 4.052 1.573 2.127-1.176 19.877 2.353 7.554 3.316-10.145-2.835-17.286 1.757-3.148z"/>
                <path fill="#4C5757" d="M59.789 42.452v33.634l-2.403-7.64 1.202-19.75L56.9 46.58zM77.441 115.946H42.414l.575 6.3 34.452-4.754z"/>
                <path fill="#4C5757" d="M59.781 77.54v38.537l-.78-.608z"/>
            </g>
            <path fill="#2D2B29" d="M258.967 29.812c-.11-1.245-2.595-1.903-3.028-2.159-.433-.255-.72-.653-.72-.653l-.837.37s-.26-.143-.72-.37c-.346.681-3.326 1.758-3.547 2.358-.347.938.201 2.642.201 2.642s-.14-.855.366-1.537a2.262 2.262 0 0 0-.059.42c0 .263.3-.804 1.293-1.16l.044-.01.046-.008c-.063.053-.222.197-.251.315-.033.135.047-.237 1.578-.473 1.103-.056 1.18.209 1.18.209.061-.187.693-.21 1.45-.162 1.26.235 1.328.552 1.297.426-.03-.132-.228-.297-.268-.33l.017.002c1.067.32 1.383 1.462 1.383 1.19 0-.16-.053-.408-.097-.589.46.667.513 1.707.513 1.707s.288-.71.159-2.188"/>
            <g transform="translate(250 27)">
                <mask id="c" fill="#fff">
                    <use xlink:href="#b"/>
                </mask>
                <use fill="#2D2B29" xlink:href="#b"/>
                <path fill="#000" d="M4-1h7v6H4z" mask="url(#c)"/>
            </g>
            <path fill="#0C0C0C" d="M266.032 19.154v3.139c0 .68-.245 1.307-.651 1.795a2.81 2.81 0 0 1-2.162 1.018h-3.937 3.985a2.821 2.821 0 0 0 2.813-2.813v-3.165l-.048.026z"/>
            <path fill="#292929" d="M243.086 19.128v3.165c0 .68.245 1.307.651 1.795l8.96-4.96h-9.611z" opacity=".93"/>
            <path fill="#0C0C0C" d="M245.899 25.106h3.985a2.821 2.821 0 0 0 2.813-2.813v-3.165l-8.96 4.96a2.81 2.81 0 0 0 2.162 1.018" opacity=".93"/>
            <path fill="#292929" d="M257.12 24.088l8.912-4.934v-.026h-9.611v3.165a2.821 2.821 0 0 0 2.813 2.813h.047a2.81 2.81 0 0 1-2.16-1.018" opacity=".898"/>
            <path fill="#0C0C0C" d="M265.38 24.088a2.798 2.798 0 0 0 .652-1.795v-3.139l-8.912 4.934a2.81 2.81 0 0 0 2.161 1.018h3.938a2.81 2.81 0 0 0 2.162-1.018" opacity=".898"/>
            <path fill="#0C0C0C" d="M252.697 22.293a2.821 2.821 0 0 1-2.813 2.813H245.9a2.821 2.821 0 0 1-2.813-2.813v-3.165h9.611v3.165zm0-3.924H241.818a.239.239 0 0 0-.239.238c0 .627.623 1.63.747 1.824v1.862c0 .951.373 1.847 1.05 2.523a3.547 3.547 0 0 0 2.523 1.05h3.985c.952 0 1.848-.373 2.524-1.05a3.547 3.547 0 0 0 1.049-2.523v-3.165a.76.76 0 0 0-.76-.76zM256.42 19.128h9.612v3.165a2.821 2.821 0 0 1-2.813 2.813h-3.985a2.821 2.821 0 0 1-2.813-2.813v-3.165zm-.759 0v3.165c0 .951.373 1.847 1.05 2.524a3.548 3.548 0 0 0 2.523 1.048h3.985c.951 0 1.848-.372 2.524-1.048a3.547 3.547 0 0 0 1.049-2.524v-1.862c.124-.194.747-1.197.747-1.824a.239.239 0 0 0-.239-.239H256.421a.76.76 0 0 0-.76.76z"/>
            <path fill="#0C0C0C" d="M252.058 18.368h5.385s-1.525.481-1.57 1.034c-.044.553-.212 1.857-.212 1.857s0-1.213-1.047-1.213c-1.172 0-1.157 1.213-1.157 1.213s-.236-1.986-.325-2.131c-.088-.146-1.074-.76-1.074-.76"/>
            <path fill="#FFA7BD" stroke="#9B7555" stroke-linecap="round" stroke-linejoin="round" d="M252.237 31.222h4.737"/>
            <path stroke="#4C5757" stroke-linecap="round" d="M268.969 23.105c1.585 2.072 1.81 3.335.674 3.79-1.4.38-1.574-1.145-1.007-1.622.54-.466 1.397-1.598 3.036.703 1.64 2.301-.167 3.27-.895 2.922-.587-.18-1.134-1.159.402-1.905 1.224-.654 2.217.297 2.978 2.853-.27.822-.686 1.289-1.247 1.4-.842.168-.928-.647-.739-1.4.19-.754 1.968-.955 2.548-.184.58.771 1.382 2.27.502 3.449-.881 1.18-2.692.804-2.034-.747.658-1.55 3.018-.031 3.018 1.22 0 1.253.723 2.999-1.486 2.999-2.068 0-.203-2.954.745-1.662 1.31 1.91.077 5.051-1.126 5.051-1.202 0-2.167-1.884-.181-2.08 1.985-.194.442 3.7.181 4.438"/>
        </g>
        <g>
            <path fill="#0A7F80" d="M200.985 169.575l-27.62-28.735a5.418 5.418 0 0 0-3.911-1.663l-32.346.03a8.803 8.803 0 0 0-6.215 2.577l-27.803 27.792c-1.114 1.114-.325 3.02 1.251 3.02h5.511v41.73h84.377v-41.73h5.507c1.576 0 2.365-1.907 1.25-3.02"/>
            <path fill="#118891" d="M200.985 169.575l-27.62-28.735a5.418 5.418 0 0 0-3.911-1.663l-32.346.03a8.803 8.803 0 0 0-6.215 2.577l-27.803 27.792c-1.114 1.114-.325 3.02 1.251 3.02h95.395c1.576 0 2.365-1.907 1.25-3.02"/>
            <path fill="#006E80" d="M132.14 172.595h-23.88l24.588-20.335 13.09-3.714z" opacity=".522"/>
            <path fill="#25B7C7" d="M200.991 169.576l-27.826-28.95a3.539 3.539 0 0 0-5.102 0l-27.825 28.95c-1.115 1.114-.326 3.02 1.25 3.02H147v41.73h47.23v-41.73h5.511c1.576 0 2.365-1.906 1.251-3.02"/>
            <path fill="#22A9B5" d="M144.948 149.636s-2.194 2.8-3.786 3.331v-15.03l4.245-3.714c.453.302.262 10.9.196 14.006-.011.54-.249 1.05-.655 1.407"/>
            <path fill="#0D838A" d="M141.162 152.967c-1.415.53-7.347 0-7.347 0a.966.966 0 0 1-.967-.966v-14.065h8.314v15.031z"/>
            <path fill="#0A7F80" d="M145.407 134.223c-.353-.354-7.874-.177-7.874-.177a.696.696 0 0 0-.46.174l-4.225 3.717h8.314l4.245-3.714z"/>
            <path fill="#0A2331" d="M180.369 196.82a2.653 2.653 0 1 1 5.306.002 2.653 2.653 0 0 1-5.306-.001"/>
            <path fill="#FEFEFE" d="M182.668 196.113a1.061 1.061 0 1 1 2.123 0 1.061 1.061 0 0 1-2.123 0M181.43 197.882a.53.53 0 1 1 1.061 0 .53.53 0 0 1-1.06 0"/>
            <path fill="#0A2331" d="M157.02 196.82a2.653 2.653 0 1 1 5.305.002 2.653 2.653 0 0 1-5.306-.001"/>
            <path fill="#FEFEFE" d="M159.319 196.113a1.061 1.061 0 1 1 2.122 0 1.061 1.061 0 0 1-2.122 0M158.08 197.882a.53.53 0 1 1 1.062 0 .53.53 0 0 1-1.062 0"/>
            <path fill="#0A2332" d="M176.035 203.098a4.687 4.687 0 0 1-4.688 4.686 4.687 4.687 0 0 1-4.687-4.686c0-1.326 9.375-1.15 9.375 0"/>
            <path fill="#9E2233" d="M173.838 206.197a2.374 2.374 0 0 0-2.49-.01 2.374 2.374 0 0 0-2.492.01 3.96 3.96 0 0 0 4.982 0"/>
        </g>
        <g transform="translate(115 177)">
            <ellipse cx="13.75" cy="16.5" fill="#BBACAC" rx="8.75" ry="15"/>
            <ellipse cx="10" cy="16.5" fill="#00BDCC" rx="10" ry="16.25"/>
            <path fill="#006E80" d="M13.75 16.265h.695V15.25l-.695.196zM13.661 15.015l3.547-.854v-1.32l-3.547 1.32zM15 16.265h.695v-1.22L15 15.25zM16.25 16.265h.695v-1.457l-.695.237zM13.75 17.515h.695V16.5h-.695zM15 17.515h.695V16.5H15zM16.945 17.515h-.695V16.5h.695zM13.75 18.616l.695.15V17.75h-.695zM15 18.765l.695.202V17.75H15zM16.25 18.908l.695.213V17.75h-.695z"/>
            <path fill="#4C5757" d="M10.371.067l4.978.72c4.774 3.3 7.16 8.386 7.16 15.256 0 12.16-6.635 16.832-8.217 16.832h-3.92c6.177-2.448 9.366-7.71 9.564-15.788.198-8.077-2.99-13.75-9.565-17.02z"/>
            <path fill="#606073" d="M15.502 3.293a1.92 1.92 0 0 1-.806-.88c-.146-.344-.137-.686.025-.938.152-.235.417-.37.746-.377.278-.006.575.077.858.24.367.213.663.535.81.884.142.34.13.677-.031.927-.154.237-.421.373-.752.38a1.633 1.633 0 0 1-.85-.236"/>
            <path fill="#4D4D5B" d="M16.414 1.183a1.84 1.84 0 0 0-.951-.264c-.385.009-.71.176-.892.46-.195.302-.21.705-.04 1.104.163.384.484.736.881.966.31.178.636.268.945.26.386-.01.713-.178.897-.463.195-.3.212-.699.046-1.093-.162-.385-.485-.738-.886-.97m-.179.31c.32.186.598.473.735.799.24.571-.04 1.044-.623 1.059a1.467 1.467 0 0 1-.755-.213 1.742 1.742 0 0 1-.73-.796c-.245-.574.026-1.051.609-1.065.252-.005.52.076.764.217"/>
            <path fill="gray" d="M16.012 2.605a1.601 1.601 0 0 1-.674-.732c-.105-.246-.105-.481 0-.645.094-.145.268-.228.49-.234a1.37 1.37 0 0 1 .693.2c.31.178.557.446.678.733.103.245.101.47-.005.635-.096.147-.272.232-.497.237a1.34 1.34 0 0 1-.685-.194"/>
            <path fill="#6B6B77" d="M16.588 1.077a1.499 1.499 0 0 0-.764-.217c-.583.014-.854.492-.61 1.066.138.326.413.612.73.795.241.14.507.22.757.213.581-.014.862-.488.622-1.059-.137-.325-.414-.613-.735-.798m0 0l-.134.233c.28.162.513.412.621.669.084.2.086.386.006.51-.07.109-.208.172-.387.176a1.205 1.205 0 0 1-.615-.176 1.465 1.465 0 0 1-.617-.669c-.087-.204-.091-.394-.01-.519.088-.137.254-.17.378-.172.193-.004.415.06.624.18l.134-.232"/>
            <path fill="#606073" d="M15.502 30.267a1.92 1.92 0 0 0-.806.882c-.146.343-.137.684.025.936.152.236.417.37.746.378.278.006.575-.077.858-.24.367-.213.663-.535.81-.884.142-.34.13-.677-.031-.927-.154-.238-.421-.373-.752-.381a1.633 1.633 0 0 0-.85.236"/>
            <path fill="#4D4D5B" d="M16.414 32.377a1.84 1.84 0 0 1-.951.265c-.385-.009-.71-.177-.892-.46-.195-.303-.21-.705-.04-1.104.163-.384.484-.737.881-.966a1.81 1.81 0 0 1 .945-.26c.386.01.713.178.897.462.195.301.212.7.046 1.094-.162.385-.485.738-.886.97m-.179-.31c.32-.186.598-.474.735-.8.24-.57-.04-1.044-.623-1.058a1.467 1.467 0 0 0-.755.212c-.318.184-.593.47-.73.796-.245.574.026 1.052.609 1.066.252.005.52-.076.764-.217"/>
            <path fill="#88869E" d="M16.012 30.956a1.601 1.601 0 0 0-.674.732c-.105.246-.105.481 0 .644.094.146.268.229.49.234a1.37 1.37 0 0 0 .693-.198c.31-.18.557-.447.678-.734.103-.245.101-.47-.005-.635-.096-.148-.272-.232-.497-.238a1.34 1.34 0 0 0-.685.195"/>
            <path fill="gray" d="M16.588 32.484c-.243.14-.512.222-.764.217-.583-.014-.854-.492-.61-1.066.138-.326.413-.612.73-.796.241-.139.507-.218.757-.212.581.014.862.487.622 1.059-.137.325-.414.613-.735.798m0 0l-.134-.233c.28-.162.513-.412.621-.67.084-.2.086-.385.006-.509-.07-.11-.208-.172-.387-.176a1.205 1.205 0 0 0-.615.176 1.465 1.465 0 0 0-.617.669c-.087.204-.091.393-.01.518.088.138.254.17.378.173.193.004.415-.06.624-.18l.134.232"/>
            <path fill="#7BDEE6" d="M6.357 1.5C6.09 1.5 0 6.945 0 15.383c0 6.647 1.639 11.678 4.916 15.092C2.084 26.695.667 21.663.667 15.383c0-6.821 2.495-10.469 5.69-13.883z"/>
            <path fill="#168891" d="M10.067.19l2.88.524c5.105 3.299 7.657 8.747 7.657 16.346s-2.79 12.794-8.372 15.587H9.419c4.27-1.746 9.717-5.401 9.717-15.587C18.8 8.3 15.776 2.678 10.067.19z"/>
            <g>
                <path fill="#606073" d="M22.78 20.695a1.668 1.668 0 0 1-1.667-1.666c0-.918.748-1.666 1.666-1.666.919 0 1.666.748 1.666 1.666 0 .919-.747 1.666-1.666 1.666"/>
                <path fill="#4D4D5B" d="M22.78 17.172a1.86 1.86 0 0 0-1.858 1.857c0 1.024.833 1.857 1.857 1.857a1.859 1.859 0 0 0 1.857-1.857 1.859 1.859 0 0 0-1.857-1.857m0 .382a1.475 1.475 0 1 1 0 2.95 1.475 1.475 0 0 1 0-2.95"/>
                <path fill="gray" d="M23.496 20.266a1.333 1.333 0 0 1-1.331-1.332c0-.734.597-1.331 1.331-1.331s1.331.597 1.331 1.331-.597 1.332-1.331 1.332"/>
                <path fill="#6B6B77" d="M23.496 17.46a1.475 1.475 0 1 0 0 2.949 1.475 1.475 0 0 0 0-2.95m0 .287a1.19 1.19 0 0 1 1.188 1.188 1.19 1.19 0 0 1-1.188 1.188 1.19 1.19 0 0 1-1.188-1.188 1.19 1.19 0 0 1 1.188-1.188"/>
            </g>
            <g>
                <path fill="#606073" d="M22.78 15.695a1.668 1.668 0 0 1-1.667-1.666c0-.918.748-1.666 1.666-1.666.919 0 1.666.748 1.666 1.666 0 .919-.747 1.666-1.666 1.666"/>
                <path fill="#4D4D5B" d="M22.78 12.172a1.86 1.86 0 0 0-1.858 1.857c0 1.024.833 1.857 1.857 1.857a1.859 1.859 0 0 0 1.857-1.857 1.859 1.859 0 0 0-1.857-1.857m0 .382a1.475 1.475 0 1 1 0 2.95 1.475 1.475 0 0 1 0-2.95"/>
                <path fill="gray" d="M23.496 15.266a1.333 1.333 0 0 1-1.331-1.332c0-.734.597-1.331 1.331-1.331s1.331.597 1.331 1.331-.597 1.332-1.331 1.332"/>
                <path fill="#6B6B77" d="M23.496 12.46a1.475 1.475 0 1 0 0 2.949 1.475 1.475 0 0 0 0-2.95m0 .287a1.19 1.19 0 0 1 1.188 1.188 1.19 1.19 0 0 1-1.188 1.188 1.19 1.19 0 0 1-1.188-1.188 1.19 1.19 0 0 1 1.188-1.188"/>
            </g>
            <g fill="#6B6B77" fill-rule="nonzero" opacity=".176">
                <path d="M7.793 18.292c0 4.28 1.149 7.75 2.05 7.75.902 0 2.051-3.47 2.051-7.75 0-4.28-1.149-7.75-2.05-7.75-.902 0-2.051 3.47-2.051 7.75zm-1.543 0C6.25 13.161 7.628 9 9.843 9c2.216 0 3.594 4.16 3.594 9.292s-1.378 9.292-3.594 9.292c-2.215 0-3.593-4.16-3.593-9.292z"/>
                <path d="M7.895 23.941l-1.11-.541 2.936-6.018 2.913 4.494-1.036.672-1.725-2.66z"/>
                <path d="M9.55 10.453l1.235.038-.252 8.043-1.234-.039z"/>
            </g>
        </g>
        <path fill="#006E80" d="M147 201.418l-37.148-10.61v-18.213H147z" opacity=".522"/>
        <path fill="#7BDEE6" d="M126.411 194.946c-.453-.07-.834-.208-1.143-.413l-.494-.942-1.177-6.798c0-.559.31-.559.927 0 .932 1.14 1.91 3.602 1.91 7.223 0 .319-.008.629-.023.93zm-3.905 7.145c-.64-.206-1.724-1.334-2.386-3.614l3.51-3.28h.928l1.438 2.741c-.64 2.628-2.365 4.63-3.49 4.153zm-.823-15.559s.676-.786.927 0l1.235 7.132-.764.714c-.54.504-1.35 1.26-2.429 2.27-.037-.25-.927 0-.927 0a17.857 17.857 0 0 1-.187-2.632c0-3.928 1.15-6.492 2.145-7.484zm-3.072 7.484c0 4.391 1.5 8.833 4.375 9.265 2.874-.432 4.375-4.874 4.375-9.265 0-4.392-1.5-8.834-4.375-9.266-2.875.432-4.375 4.874-4.375 9.266z"/>
        <ellipse cx="124.375" cy="194.125" fill="#006E80" rx="1" ry="1.875"/>
        <g>
            <path fill="#5A452D" d="M269.579 22.04l4.75 1.887s.732 0 1.171.481c.44.482 3.603 2.602 2.832 2.602l-2.1.529s-2.083-.783-2.376-1.987c0 0-2.956-1.615-3.834-2.097-.547-.239-.695-.711-.443-1.416z"/>
            <path fill="#726043" d="M282.882 34.946s-3.221-7.81-4.246-8.126c-1.026-.316-3.661-.95-4.833-.738a16.691 16.691 0 0 0-2.343.633s0 1.372.586 2.005c.585.633 1.025 2.322 1.61 2.427.586.106 1.758.422 1.758.422s-1.025-1.583.293-1.372c1.318.211-.586 2.533-.293 2.955.293.422.879 2.005 1.904 2.638s3.66 2.111 4.1 3.06l3.515-.421-2.05-3.483z"/>
        </g>
        <g>
            <path fill="#76BDC2" fill-rule="nonzero" d="M173.364 96.29H170.9v-9.53a8.298 8.298 0 0 0-8.298-8.297 8.298 8.298 0 0 0-8.298 8.297v9.53h-2.463v-9.53c0-5.943 4.818-10.76 10.761-10.76s10.76 4.817 10.76 10.76v9.53z"/>
            <path fill="#06A2AE" fill-rule="nonzero" d="M171.001 93.522h-2.715v-7.08c0-3.23-2.771-5.848-6.001-5.848a5.848 5.848 0 0 0-5.849 5.849v7.08h-2.462v-7.08c0-4.59 3.72-8.311 8.31-8.311s8.717 3.72 8.717 8.31v7.08z"/>
            <path fill="#FFB700" d="M173.47 114.502h-22.374a2.096 2.096 0 0 1-2.096-2.096v-18.31c0-1.158.939-2.096 2.096-2.096h22.373c1.157 0 2.096.938 2.096 2.096v18.31a2.096 2.096 0 0 1-2.096 2.096"/>
            <path fill="#EAA30F" d="M175.66 113.034h-3.693L162 92h11.525c1.178 0 2.134.955 2.134 2.133v18.901z"/>
            <path fill="#FFF" fill-rule="nonzero" d="M160.825 104.45l6.424-6.424 2.01 2.01-8.434 8.434-4.72-4.72 2.01-2.01z"/>
            <path fill="#EAA30F" d="M171.526 115H151a2 2 0 0 1-2-2h26.582c0 1.105-1.493 2-2.598 2h-1.458z"/>
        </g>
        <circle cx="163.5" cy="122.5" r="4.5" fill="#006E80"/>
        <circle cx="163.5" cy="133.5" r="2.5" fill="#006E80"/>
    </g>
</svg>
