<svg xmlns="http://www.w3.org/2000/svg" width="164" height="58" viewBox="0 0 164 58">
    <g fill="none" fill-rule="evenodd">
        <rect width="163.2" height="57.6" fill="#032526" rx="5.76"/>
        <text fill="#FFF" font-family="Roboto-Regular, Roboto" font-size="19.2" letter-spacing=".092">
            <tspan x="57.6" y="45.92">site mobile</tspan>
        </text>
        <text fill="#FFF" font-family="Roboto-Regular, Roboto" font-size="13.44" letter-spacing=".064">
            <tspan x="57.6" y="20.72">Accéder au</tspan>
        </text>
        <path fill="#FFF" d="M49.042 16.729v24.264c0 3.343-2.727 6.07-6.07 6.07H23.36c-3.344 0-6.071-2.727-6.071-6.07v-3.93a1.202 1.202 0 1 1 2.405 0v3.93a3.684 3.684 0 0 0 3.675 3.675h19.601a3.684 3.684 0 0 0 3.676-3.675V16.729a3.684 3.684 0 0 0-3.676-3.676h-19.61a3.684 3.684 0 0 0-3.676 3.676v3.93a1.202 1.202 0 1 1-2.405 0v-3.93c0-3.344 2.727-6.071 6.07-6.071h19.621a6.077 6.077 0 0 1 6.071 6.07zM26.15 37.745c.234.235.538.352.85.352.313 0 .616-.117.85-.352l8.203-8.202c.47-.47.47-1.222 0-1.691L27.85 19.65a1.192 1.192 0 0 0-1.691 0c-.47.469-.47 1.222 0 1.69l6.158 6.16H9.843a1.202 1.202 0 1 0 0 2.405h22.465l-6.16 6.159a1.18 1.18 0 0 0 0 1.681"/>
    </g>
</svg>
