<svg xmlns="http://www.w3.org/2000/svg" width="34" height="26" viewBox="0 0 34 26">
    <path fill="#00BDCC" fill-rule="nonzero" d="M33.744 12.187L25.94 4.5 21.572.253a.74.74 0 0 0-1.255.53l.012 5.47v1.752a23.312 23.312 0 0 0-8.06 1.794C7.984 11.604 2.393 15.612.06 24.455a.74.74 0 0 0 1.271.675c.065-.076 6.539-7.47 18.986-7.687v7.208a.74.74 0 0 0 1.26.527l7.048-6.995 5.114-4.94a.74.74 0 0 0 0-1.058l.006.002zm-6.155 4.94l-5.792 5.742v-6.904h-.74v-.015h-.166c-7.015 0-12.233 2.2-15.384 4.055a26.575 26.575 0 0 0-3.171 2.185c1.992-5.205 5.499-8.9 10.45-11.005 4.326-1.838 8.202-1.712 8.24-1.71V9.46h.778V6.247l-.007-3.71 3.104 3.02 7.266 7.156-4.578 4.414z"/>
</svg>
